<svg width="40" height="40" viewBox="0 0 40 40" fill="none" xmlns="http://www.w3.org/2000/svg">
<g filter="url(#filter0_d_792_1577)">
<circle cx="20" cy="16" r="16" fill="#F89C26"/>
<path d="M26.0549 13.5426C23.2443 10.0285 17.5811 7.19236 13.4188 8.20925C13.1443 8.27151 13.0339 8.52745 13.0548 8.77993C10.462 10.4297 13.3293 16.147 14.4244 17.8175C16.5786 21.1413 20.4127 24.8456 24.2677 23.8287C26.0579 23.3618 27.3528 21.4146 27.8482 19.4673C28.4121 17.2676 27.3141 15.1094 26.0549 13.5426ZM23.7366 22.8153C20.6872 23.6212 17.4558 20.1902 15.6298 17.8002C13.8037 15.3653 12.3984 12.4254 13.5113 9.39558C16.0117 14.6459 21.0721 18.7099 25.8908 20.5291C26.4757 20.7401 26.7322 19.6817 26.1474 19.45C21.5107 17.6307 16.9635 13.9887 14.2065 9.22611C17.5304 8.75918 21.3287 10.8137 23.9395 12.9304C25.4373 14.1582 26.8785 15.9568 27.0068 18.1807C27.0963 20.3597 25.4701 22.3484 23.7366 22.8153Z" fill="white"/>
</g>
<defs>
<filter id="filter0_d_792_1577" x="0" y="0" width="40" height="40" filterUnits="userSpaceOnUse" color-interpolation-filters="sRGB">
<feFlood flood-opacity="0" result="BackgroundImageFix"/>
<feColorMatrix in="SourceAlpha" type="matrix" values="0 0 0 0 0 0 0 0 0 0 0 0 0 0 0 0 0 0 127 0" result="hardAlpha"/>
<feOffset dy="4"/>
<feGaussianBlur stdDeviation="2"/>
<feComposite in2="hardAlpha" operator="out"/>
<feColorMatrix type="matrix" values="0 0 0 0 0 0 0 0 0 0 0 0 0 0 0 0 0 0 0.25 0"/>
<feBlend mode="normal" in2="BackgroundImageFix" result="effect1_dropShadow_792_1577"/>
<feBlend mode="normal" in="SourceGraphic" in2="effect1_dropShadow_792_1577" result="shape"/>
</filter>
</defs>
</svg>
