<svg width="25" height="26" viewBox="0 0 25 26" fill="none" xmlns="http://www.w3.org/2000/svg">
<path d="M9.03157 23.528V19.8587C9.03157 18.9221 9.80316 18.1628 10.7549 18.1628H14.2342C14.6913 18.1628 15.1296 18.3415 15.4528 18.6595C15.776 18.9776 15.9576 19.4089 15.9576 19.8587V23.528C15.9547 23.9174 16.1099 24.2919 16.3887 24.5682C16.6674 24.8446 17.0468 25 17.4425 25H19.8162C20.9248 25.0028 21.989 24.5714 22.7739 23.801C23.5589 23.0305 24 21.9844 24 20.8934V10.4402C24 9.55895 23.603 8.72301 22.9161 8.1576L14.8412 1.81104C13.4365 0.698274 11.424 0.734203 10.0613 1.89637L2.17059 8.1576C1.45121 8.70634 1.02125 9.54476 1 10.4402V20.8827C1 23.1566 2.87315 25 5.18379 25H7.5033C8.32517 25 8.9931 24.3475 8.99906 23.5387L9.03157 23.528Z" stroke="#F89C26" stroke-width="2"/>
</svg>
