<svg width="19" height="27" viewBox="0 0 19 27" fill="none" xmlns="http://www.w3.org/2000/svg">
<path d="M11.1806 0.695877C10.96 0.475258 10.6981 0.300253 10.4098 0.180854C10.1216 0.0614544 9.81266 0 9.50068 0C9.18869 0 8.87976 0.0614544 8.59153 0.180854C8.3033 0.300253 8.0414 0.475258 7.82081 0.695877L2.78051 5.73482C1.51382 7.00236 0.631426 8.60228 0.235184 10.3499C-0.161057 12.0975 -0.0549878 13.9215 0.541148 15.6114C1.13728 17.3013 2.19918 18.7882 3.60425 19.9004C5.00931 21.0125 6.70027 21.7047 8.4819 21.8969V25.0992C8.4819 25.3692 8.58916 25.6281 8.78009 25.8191C8.97102 26.01 9.22998 26.1173 9.5 26.1173C9.77002 26.1173 10.029 26.01 10.2199 25.8191C10.4108 25.6281 10.5181 25.3692 10.5181 25.0992V21.8969C12.2999 21.7047 13.991 21.0124 15.3961 19.9001C16.8013 18.7877 17.8631 17.3007 18.4592 15.6105C19.0552 13.9204 19.161 12.0962 18.7645 10.3485C18.368 8.60077 17.4852 7.00086 16.2181 5.73346L11.1792 0.694519L11.1806 0.695877ZM10.5181 19.8471V12.2045C10.5181 11.9345 10.4108 11.6756 10.2199 11.4846C10.029 11.2937 9.77002 11.1864 9.5 11.1864C9.22998 11.1864 8.97102 11.2937 8.78009 11.4846C8.58916 11.6756 8.4819 11.9345 8.4819 12.2045V19.8471C7.10541 19.6575 5.80915 19.0875 4.73903 18.2012C3.66891 17.3149 2.8674 16.1475 2.4247 14.8305C1.98201 13.5134 1.91571 12.0989 2.23326 10.7462C2.55081 9.39347 3.23962 8.15624 4.22215 7.17374L9.25973 2.13616C9.29125 2.10455 9.3287 2.07948 9.36993 2.06237C9.41116 2.04526 9.45536 2.03645 9.5 2.03645C9.54464 2.03645 9.58884 2.04526 9.63007 2.06237C9.6713 2.07948 9.70875 2.10455 9.74027 2.13616L14.7779 7.17374C15.7604 8.15624 16.4492 9.39347 16.7667 10.7462C17.0843 12.0989 17.018 13.5134 16.5753 14.8305C16.1326 16.1475 15.3311 17.3149 14.261 18.2012C13.1908 19.0875 11.8946 19.6575 10.5181 19.8471Z" fill="#B0B0B0"/>
</svg>
