<svg width="40" height="40" viewBox="0 0 40 40" fill="none" xmlns="http://www.w3.org/2000/svg">
<g filter="url(#filter0_d_792_1586)">
<circle cx="20" cy="16" r="16" fill="#F89C26"/>
<path d="M25.2644 13.15C25.2641 13.1188 25.2535 13.0887 25.2415 13.0592C25.238 13.0505 25.2389 13.0407 25.2345 13.0323L25.2342 13.0312L23.212 9.29152V8.27104C23.212 8.18914 23.1721 8.11185 23.1035 8.06059C23.0348 8.00907 22.9445 7.989 22.8583 8.00581L17.2859 9.09057C17.1501 9.11688 17.053 9.22752 17.053 9.35579V10.3551L15.0531 12.997C15.0513 12.9995 15.0513 13.0027 15.0496 13.0052C15.0282 13.0356 15.0132 13.0692 15.0062 13.105C15.005 13.1104 15.0047 13.1153 15.0041 13.1207C15.0026 13.1313 15 13.1416 15 13.1524V16.6779V20.7457V22.1017C15 22.2102 15.0698 22.3083 15.1777 22.3509L19.2837 23.978C19.2869 23.9794 19.2902 23.9788 19.2934 23.9799C19.3274 23.9919 19.3626 24 19.3993 24C19.4242 24 19.4491 23.997 19.4738 23.9911L25.0462 22.6351C25.1752 22.6036 25.265 22.496 25.265 22.3729V18.305V13.966V13.1524L25.2644 13.15ZM21.159 9.42115V8.8907L21.7456 8.77653V9.30698L21.159 9.42115ZM20.5724 9.53532L19.9858 9.64949V9.11905L20.5724 9.00488V9.53532ZM19.3993 9.76366L18.8127 9.87783V9.35579C18.8127 9.35308 18.8109 9.35064 18.8109 9.34793L19.3993 9.23322V9.76366ZM17.7683 10.6355L20.6193 10.0804L22.7577 9.66414L24.5479 12.9751L22.7348 13.4163L19.5615 14.1884L18.0672 11.2275L17.7683 10.6355ZM24.6784 13.8399L19.6926 17.7222V14.7172L24.6784 13.5039V13.8399ZM15.5866 13.5373L19.106 14.6996V17.8939L15.5866 16.4992V13.5373ZM15.5866 17.089L19.106 18.4837V21.9615L15.5866 20.5667V17.089ZM19.6926 18.4311L24.6784 14.5491V18.1738L19.6926 21.8131V18.4311ZM22.6254 9.13559L22.3321 9.19254V8.66236L22.6254 8.60541V9.13559ZM17.6396 9.57573L18.2261 9.46156V9.992L17.6396 10.1062V9.57573ZM17.2952 10.9808L18.066 12.5076L18.8365 14.0343L15.754 13.0163L17.2952 10.9808ZM15.5866 21.1569L19.106 22.5516V23.3174L15.5866 21.9227V21.1569ZM19.6926 23.3771V22.5044L24.6784 18.8648V22.1641L19.6926 23.3771Z" fill="white"/>
<path d="M20.8956 12.8446C21.0317 12.993 21.254 13.1475 21.5874 13.1475C21.6778 13.1475 21.7763 13.1364 21.8834 13.1104C22.3861 12.9886 22.5526 12.6741 22.604 12.4313C22.6609 12.162 22.5961 11.8789 22.5424 11.6896C22.2661 10.7136 21.6684 10.6396 21.2156 10.7489C20.7624 10.8584 20.2806 11.1942 20.5565 12.1699C20.6096 12.3595 20.7032 12.6358 20.8956 12.8446ZM21.3637 11.2739C21.4126 11.262 21.4619 11.2528 21.5109 11.2528C21.6781 11.2528 21.8423 11.3591 21.9749 11.8269C22.0139 11.9652 22.062 12.1672 22.0283 12.3275C22.0066 12.43 21.9561 12.5322 21.735 12.5856C21.5141 12.6393 21.4159 12.5729 21.3426 12.4934C21.2282 12.3687 21.1631 12.171 21.1238 12.033C20.9522 11.4277 21.1484 11.326 21.3637 11.2739Z" fill="white"/>
</g>
<defs>
<filter id="filter0_d_792_1586" x="0" y="0" width="40" height="40" filterUnits="userSpaceOnUse" color-interpolation-filters="sRGB">
<feFlood flood-opacity="0" result="BackgroundImageFix"/>
<feColorMatrix in="SourceAlpha" type="matrix" values="0 0 0 0 0 0 0 0 0 0 0 0 0 0 0 0 0 0 127 0" result="hardAlpha"/>
<feOffset dy="4"/>
<feGaussianBlur stdDeviation="2"/>
<feComposite in2="hardAlpha" operator="out"/>
<feColorMatrix type="matrix" values="0 0 0 0 0 0 0 0 0 0 0 0 0 0 0 0 0 0 0.25 0"/>
<feBlend mode="normal" in2="BackgroundImageFix" result="effect1_dropShadow_792_1586"/>
<feBlend mode="normal" in="SourceGraphic" in2="effect1_dropShadow_792_1586" result="shape"/>
</filter>
</defs>
</svg>
