<svg width="40" height="40" viewBox="0 0 40 40" fill="none" xmlns="http://www.w3.org/2000/svg">
<g filter="url(#filter0_d_792_1591)">
<circle cx="20" cy="16" r="16" fill="#F89C26"/>
<path d="M27.8345 10.6061C27.8147 10.5995 20.087 8.02473 20.087 8.02473C20.0178 7.99176 19.9519 7.99176 19.8826 8.02473L12.2374 10.5402C12.0462 10.6193 12 10.7841 12 10.8797V21.2086C12 21.38 12.1022 21.5152 12.2374 21.5482L19.787 23.9614C19.9024 24.0043 20.0277 24.0208 20.1859 23.9614L27.7323 21.5482C27.8675 21.4789 27.9697 21.3438 27.9697 21.2086V10.8797C27.9697 10.7775 27.9367 10.6753 27.8345 10.6061ZM19.9848 8.73683L26.5422 10.8435L24.0663 11.638L17.6045 9.51158L19.9848 8.73683ZM19.6453 23.1768L12.6791 20.9679V11.3611L19.6453 13.5897V23.1768ZM19.9848 12.9501L13.4275 10.8797L16.5166 9.87093L22.9552 11.9974L19.9848 12.9501ZM20.3244 23.1768V13.5633L23.7893 12.4655V13.5304L24.4685 13.2403V12.2512L27.2872 11.3611V20.935H27.2905L20.3244 23.1768Z" fill="white"/>
</g>
<defs>
<filter id="filter0_d_792_1591" x="0" y="0" width="40" height="40" filterUnits="userSpaceOnUse" color-interpolation-filters="sRGB">
<feFlood flood-opacity="0" result="BackgroundImageFix"/>
<feColorMatrix in="SourceAlpha" type="matrix" values="0 0 0 0 0 0 0 0 0 0 0 0 0 0 0 0 0 0 127 0" result="hardAlpha"/>
<feOffset dy="4"/>
<feGaussianBlur stdDeviation="2"/>
<feComposite in2="hardAlpha" operator="out"/>
<feColorMatrix type="matrix" values="0 0 0 0 0 0 0 0 0 0 0 0 0 0 0 0 0 0 0.25 0"/>
<feBlend mode="normal" in2="BackgroundImageFix" result="effect1_dropShadow_792_1591"/>
<feBlend mode="normal" in="SourceGraphic" in2="effect1_dropShadow_792_1591" result="shape"/>
</filter>
</defs>
</svg>
