<svg width="30" height="31" viewBox="0 0 30 31" fill="none" xmlns="http://www.w3.org/2000/svg">
<path d="M18.0973 22.3151C17.0573 22.3192 16.0454 21.9782 15.2199 21.3457C14.3944 20.7131 13.802 19.8247 13.5354 18.8195C12.9842 16.7448 11.9051 15.2683 10.0654 14.1529C8.04839 12.9307 7.39456 10.8902 8.04411 8.81119C8.71717 6.66808 10.4351 5.37538 12.6295 5.3711C14.8239 5.36683 16.7533 6.71936 17.2576 8.96503C17.7405 11.1274 19.0396 12.4265 20.7895 13.5611C22.7126 14.7982 23.3536 17.046 22.6271 19.1443C22.0117 20.9284 20.016 22.3258 18.0973 22.3151ZM12.7555 6.27065C11.9045 6.23557 11.0661 6.48556 10.3733 6.98099C9.68043 7.47643 9.1728 8.18896 8.93084 9.00563C8.39667 10.6787 8.93084 12.4243 10.5633 13.3901C12.5483 14.5589 13.7683 16.1443 14.3559 18.3751C14.8794 20.3515 16.3666 21.4006 18.1315 21.3857C18.9532 21.3642 19.748 21.0876 20.4054 20.594C21.0628 20.1005 21.5503 19.4146 21.8002 18.6315C22.3386 16.8687 21.8365 15.2298 20.0417 14.1444C18.0417 12.9585 16.9029 11.341 16.3388 9.10819C16.142 8.30376 15.6825 7.58793 15.0332 7.07399C14.3838 6.56005 13.5815 6.27736 12.7534 6.27065H12.7555Z" fill="white"/>
<path d="M11.8749 24.803C11.8782 24.8908 11.8629 24.9784 11.8298 25.0598C11.7967 25.1413 11.7467 25.2147 11.683 25.2754C11.6194 25.336 11.5435 25.3824 11.4606 25.4115C11.3776 25.4405 11.2894 25.4516 11.2018 25.444H10.9689V25.991H10.5181V24.1705H11.2018C11.2887 24.1626 11.3763 24.1732 11.4588 24.2017C11.5413 24.2301 11.6169 24.2757 11.6805 24.3355C11.7441 24.3952 11.7943 24.4678 11.8278 24.5484C11.8613 24.629 11.8773 24.7157 11.8749 24.803ZM11.4176 24.803C11.4176 24.6256 11.3022 24.5765 11.1612 24.5765H10.9689V25.0252H11.1612C11.3022 25.0337 11.4176 24.991 11.4176 24.803Z" fill="white"/>
<path d="M13.2701 25.5016H12.3663C12.3988 25.5568 12.4465 25.6015 12.5037 25.6303C12.5609 25.6591 12.6252 25.6708 12.6889 25.664C12.7968 25.6676 12.903 25.6369 12.9923 25.5764L13.1868 25.79C13.0914 25.8965 12.9664 25.9721 12.8278 26.0071C12.6892 26.0421 12.5433 26.0349 12.4088 25.9865C12.2743 25.938 12.1574 25.8506 12.0729 25.7352C11.9884 25.6199 11.9403 25.482 11.9347 25.3392C11.9308 25.2479 11.9458 25.1568 11.9787 25.0715C12.0115 24.9862 12.0616 24.9086 12.1257 24.8435C12.1898 24.7783 12.2666 24.7271 12.3514 24.6929C12.4362 24.6587 12.5271 24.6423 12.6184 24.6448C12.956 24.6384 13.3641 24.8713 13.2701 25.5016ZM12.3492 25.1896H12.8791C12.8639 25.134 12.8297 25.0854 12.7825 25.0523C12.7353 25.0191 12.678 25.0035 12.6206 25.008C12.5624 25.0065 12.5052 25.0232 12.4569 25.0558C12.4087 25.0883 12.3717 25.1351 12.3513 25.1896H12.3492Z" fill="white"/>
<path d="M13.3833 25.3281C13.3762 25.2397 13.3875 25.1508 13.4165 25.067C13.4455 24.9832 13.4916 24.9063 13.5519 24.8413C13.6121 24.7762 13.6852 24.7244 13.7665 24.689C13.8478 24.6536 13.9356 24.6355 14.0243 24.6358C14.0931 24.6311 14.162 24.6424 14.2258 24.6687C14.2895 24.695 14.3463 24.7357 14.3918 24.7875V24.6614H14.8362V25.9947H14.3897V25.8729C14.3442 25.9248 14.2874 25.9654 14.2236 25.9917C14.1599 26.018 14.0909 26.0293 14.0221 26.0246C13.9333 26.0247 13.8453 26.0062 13.764 25.9705C13.6826 25.9347 13.6095 25.8824 13.5495 25.8169C13.4894 25.7514 13.4436 25.6741 13.415 25.59C13.3864 25.5058 13.3756 25.4166 13.3833 25.3281ZM14.4003 25.3281C14.3987 25.2711 14.3803 25.2159 14.3474 25.1692C14.3146 25.1226 14.2688 25.0867 14.2157 25.066C14.1625 25.0452 14.1045 25.0406 14.0488 25.0525C13.993 25.0645 13.9421 25.0926 13.9022 25.1334C13.8623 25.1741 13.8353 25.2257 13.8245 25.2817C13.8137 25.3377 13.8197 25.3956 13.8416 25.4482C13.8635 25.5009 13.9004 25.5459 13.9477 25.5777C13.995 25.6096 14.0506 25.6268 14.1076 25.6272C14.1469 25.6285 14.1861 25.6215 14.2226 25.6068C14.2591 25.5922 14.2922 25.5701 14.3197 25.5419C14.3472 25.5138 14.3686 25.4803 14.3825 25.4435C14.3963 25.4067 14.4024 25.3674 14.4003 25.3281Z" fill="white"/>
<path d="M16.3769 25.21V25.9941H15.9325V25.2869C15.9325 25.148 15.8663 25.0283 15.7188 25.0283C15.5714 25.0283 15.5052 25.148 15.5052 25.2869V25.9941H15.0586V24.6608H15.503V24.8168C15.5467 24.7577 15.6042 24.7102 15.6705 24.6786C15.7369 24.6469 15.8099 24.632 15.8834 24.6352C16.1504 24.6352 16.3769 24.804 16.3769 25.21Z" fill="white"/>
<path d="M17.9197 24.6602V25.9935H17.4774V25.8375C17.4335 25.8969 17.3757 25.9446 17.309 25.9762C17.2422 26.0079 17.1687 26.0226 17.095 26.0191C16.8279 26.0191 16.6035 25.8524 16.6035 25.4443V24.6602H17.0458V25.3674C17.0458 25.5063 17.1142 25.6259 17.2595 25.6259C17.4048 25.6259 17.4732 25.5063 17.4732 25.3674V24.6602H17.9197Z" fill="white"/>
<path d="M19.0152 25.5995V25.9349C18.9369 25.9921 18.8404 26.0187 18.7439 26.0097C18.6815 26.0174 18.6182 26.0107 18.5589 25.9902C18.4995 25.9697 18.4456 25.9359 18.4013 25.8913C18.3569 25.8468 18.3234 25.7927 18.3031 25.7333C18.2829 25.6738 18.2765 25.6105 18.2845 25.5482V25.0183H18.0708V24.67H18.2845V24.3281H18.7268V24.67H19.0088V25.0183H18.7268V25.4905C18.7268 25.5525 18.7631 25.6294 18.8892 25.6294C18.9324 25.6255 18.9748 25.6154 19.0152 25.5995Z" fill="white"/>
<path d="M19.1353 25.6358L19.4857 25.5397C19.4927 25.5782 19.513 25.613 19.5431 25.6379C19.5732 25.6629 19.6111 25.6766 19.6502 25.6764C19.7122 25.6764 19.7634 25.6487 19.7634 25.591C19.7634 25.5333 19.7485 25.5269 19.6801 25.5076L19.4857 25.435C19.396 25.4147 19.3159 25.3645 19.2584 25.2927C19.201 25.2209 19.1696 25.1317 19.1694 25.0397C19.1694 24.7854 19.4023 24.6359 19.6716 24.6359C19.785 24.6281 19.8975 24.6614 19.9885 24.7296C20.0795 24.7979 20.143 24.8965 20.1673 25.0077L19.8211 25.0931C19.7934 24.9906 19.7293 24.9735 19.6908 24.9735C19.6523 24.9735 19.5968 25.0205 19.5968 25.0483C19.5968 25.076 19.616 25.1145 19.6929 25.1359L19.8746 25.2021C19.9644 25.2212 20.0453 25.2699 20.1041 25.3404C20.163 25.4109 20.1966 25.4991 20.1993 25.591C20.1993 25.8602 19.9686 26.0183 19.6587 26.0183C19.5391 26.034 19.418 26.003 19.3205 25.9318C19.2231 25.8606 19.1567 25.7546 19.1353 25.6358Z" fill="white"/>
<path d="M0.979713 15.4998C0.95405 11.6828 2.44144 8.01107 5.11639 5.28807C7.79134 2.56507 11.436 1.01255 15.2529 0.970257C23.1971 0.854875 29.7354 7.38035 29.7375 15.4485C29.7644 17.3513 29.4132 19.2404 28.7046 21.0065C27.9959 22.7725 26.9437 24.3804 25.6091 25.7368C24.2744 27.0932 22.6838 28.1712 20.9294 28.9084C19.1751 29.6455 17.2918 30.0272 15.3889 30.0311C13.486 30.0351 11.6012 29.6613 9.84375 28.9314C8.08634 28.2016 6.49126 27.1302 5.15097 25.7794C3.81068 24.4285 2.75184 22.8251 2.03581 21.062C1.31978 19.2989 0.960816 17.4112 0.979713 15.5084V15.4998ZM28.6756 15.4421C28.6542 7.94444 22.6287 1.90399 15.2486 1.99374C11.6926 2.01244 8.28973 3.44297 5.78851 5.97064C3.28728 8.49831 1.89261 11.9161 1.91131 15.472C1.93001 19.028 3.36055 22.4309 5.88822 24.9321C8.41589 27.4333 11.8336 28.828 15.3896 28.8093C17.1408 28.8079 18.8745 28.4606 20.4911 27.7874C22.1077 27.1141 23.5754 26.1282 24.8099 24.8861C26.0444 23.6441 27.0214 22.1704 27.6848 20.5497C28.3482 18.929 28.6849 17.1933 28.6756 15.4421Z" fill="white"/>
</svg>
