<svg width="29" height="32" viewBox="0 0 29 32" fill="none" xmlns="http://www.w3.org/2000/svg">
<path d="M6.23444 0.0483516C7.95683 0.124193 9.36787 0.471465 10.6951 1.15204C11.7529 1.66577 12.6182 2.50511 13.1638 3.54684C13.7095 4.58857 13.9068 5.7778 13.7267 6.93992C13.6804 7.15599 13.653 7.3757 13.6449 7.59654C13.6589 7.9039 13.8046 8.19529 14.1459 8.18132C14.4872 8.16735 14.6149 7.87795 14.6189 7.56461C14.6043 7.37405 14.577 7.18469 14.537 6.9978C14.1858 4.43916 15.3513 2.26172 17.6705 1.09017C19.1574 0.339741 20.752 0.0922597 22.3886 0.00244784C22.8935 -0.0254936 23.1869 0.184067 23.169 0.718947C23.1251 3.07202 22.66 5.29536 20.9935 7.07962C19.7761 8.38689 18.1994 8.80002 16.463 8.65433C15.036 8.53657 14.7067 8.81998 14.6887 10.2789C14.6887 10.8777 14.6688 11.4904 14.6408 12.0951C14.6269 12.4284 14.561 12.7497 14.1139 12.7398C13.6669 12.7298 13.6289 12.3805 13.615 12.0612C13.585 11.3287 13.597 10.5943 13.5611 9.86579C13.5152 8.91977 13.0901 8.51661 12.148 8.63237C8.23624 9.11337 6.26038 6.55472 5.55586 3.9861C5.31257 3.1599 5.15736 2.31027 5.09283 1.45141C5.01499 0.0323851 5.08883 -0.0354728 6.23444 0.0483516Z" fill="white"/>
<path d="M22.8257 5.90494C22.8074 6.08634 22.7509 6.26181 22.66 6.41986C22.5716 6.57441 22.4536 6.71004 22.3128 6.81902C23.8242 8.02152 25.0511 9.54324 25.9058 11.2753C26.7604 13.0074 27.2216 14.9069 27.2564 16.838C27.3442 24.013 21.3687 29.9765 14.098 29.9705C6.76332 29.9705 1.03732 24.1926 1.05528 16.8241C1.06087 14.8896 1.5023 12.9813 2.34676 11.2409C3.19123 9.50045 4.41702 7.9727 5.93306 6.77112C5.66167 6.54079 5.47717 6.2246 5.41016 5.875C3.10429 7.67294 1.41689 10.1456 0.583174 12.9481C-0.250537 15.7507 -0.189003 18.7436 0.759198 21.5096C1.7074 24.2755 3.49501 26.6767 5.87283 28.3783C8.25064 30.08 11.1002 30.9973 14.0241 31.0024C21.8537 31.0024 28.1944 24.7894 28.2324 17.0815C28.2465 14.9291 27.7664 12.802 26.829 10.8643C25.8917 8.92664 24.5221 7.22994 22.8257 5.90494Z" fill="white"/>
<path d="M10.334 15.9725C10.334 17.0203 9.58553 17.5273 8.91095 17.5273C8.75766 17.5376 8.60402 17.5134 8.46135 17.4564C8.31868 17.3994 8.19064 17.3111 8.08667 17.198H8.06871V18.5751H7.0708V14.4757H8.06871V14.7571H8.08667C8.18969 14.6422 8.31732 14.552 8.46003 14.4932C8.60275 14.4345 8.75688 14.4087 8.91095 14.4178C9.58553 14.4178 10.334 14.9247 10.334 15.9725ZM9.35402 15.9725C9.35009 15.8438 9.30828 15.7191 9.23383 15.614C9.15938 15.509 9.05559 15.4282 8.93545 15.3818C8.81531 15.3354 8.68416 15.3255 8.55841 15.3533C8.43267 15.3811 8.31791 15.4454 8.22851 15.5381C8.13911 15.6307 8.07904 15.7478 8.05581 15.8744C8.03257 16.0011 8.04722 16.1318 8.09791 16.2502C8.1486 16.3686 8.23308 16.4694 8.34077 16.54C8.44847 16.6106 8.5746 16.6479 8.70338 16.6471C8.7912 16.6483 8.87833 16.6315 8.9594 16.5977C9.04047 16.5639 9.11375 16.5139 9.17472 16.4507C9.23569 16.3875 9.28306 16.3124 9.3139 16.2302C9.34474 16.1479 9.35839 16.0603 9.35402 15.9725Z" fill="white"/>
<path d="M10.6973 13.3809H11.6952V17.4723H10.6973V13.3809Z" fill="white"/>
<path d="M12.0479 15.9689C12.0479 14.9211 12.7983 14.4141 13.4669 14.4141C13.6216 14.4044 13.7765 14.4299 13.92 14.4887C14.0634 14.5474 14.1917 14.6379 14.2951 14.7534H14.3131V14.472H15.311V17.4657H14.3131V17.1943H14.3031C14.1997 17.3098 14.0714 17.4003 13.9279 17.459C13.7845 17.5178 13.6296 17.5433 13.4749 17.5336C12.8063 17.5236 12.0479 17.0167 12.0479 15.9689ZM14.3351 15.9689C14.3311 15.8404 14.2895 15.7159 14.2153 15.611C14.1411 15.506 14.0377 15.4252 13.9179 15.3787C13.7981 15.3321 13.6672 15.3218 13.5417 15.3491C13.4161 15.3765 13.3013 15.4401 13.2116 15.5322C13.122 15.6243 13.0614 15.7408 13.0375 15.8671C13.0136 15.9933 13.0274 16.1239 13.0772 16.2424C13.127 16.3609 13.2105 16.4621 13.3174 16.5334C13.4244 16.6047 13.5499 16.643 13.6784 16.6435C13.7677 16.6475 13.8567 16.6328 13.9399 16.6002C14.023 16.5676 14.0984 16.5179 14.1611 16.4543C14.2238 16.3907 14.2724 16.3146 14.3037 16.2309C14.3351 16.1473 14.3485 16.058 14.343 15.9689H14.3351Z" fill="white"/>
<path d="M18.7861 15.7063V17.4706H17.7881V15.874C17.7881 15.5626 17.6385 15.2912 17.2992 15.2912C16.9599 15.2912 16.8202 15.5626 16.8202 15.874V17.4706H15.8223V14.4769H16.8202V14.8282C16.9173 14.6948 17.046 14.5877 17.1948 14.5163C17.3435 14.4449 17.5076 14.4115 17.6724 14.419C18.2791 14.417 18.7861 14.7902 18.7861 15.7063Z" fill="white"/>
<path d="M21.1611 16.581V17.3354C20.9845 17.4634 20.7675 17.523 20.5504 17.5031C19.9516 17.5031 19.5185 17.2157 19.5185 16.4653V15.2558H19.0635V14.4734H19.5185V13.707H20.5164V14.4734H21.1491V15.2558H20.5164V16.3156C20.5164 16.4553 20.5963 16.6269 20.8797 16.6269C20.9752 16.6255 21.07 16.6101 21.1611 16.581Z" fill="white"/>
<path d="M9.27582 22.1864C9.27582 23.2342 8.52739 23.7411 7.8528 23.7411C7.69873 23.7502 7.5446 23.7244 7.40188 23.6657C7.25917 23.6069 7.13155 23.5167 7.02852 23.4018H7.01256V23.6832H6.01465V19.5918H7.01256V20.9689H7.02852C7.13197 20.8535 7.26025 20.7629 7.4037 20.7042C7.54716 20.6454 7.70207 20.6199 7.85679 20.6296C8.52739 20.6296 9.27582 21.1366 9.27582 22.1864ZM8.29587 22.1864C8.29194 22.0576 8.25014 21.9329 8.17568 21.8279C8.10123 21.7228 7.99744 21.642 7.8773 21.5956C7.75716 21.5492 7.62601 21.5393 7.50027 21.5671C7.37452 21.5949 7.25977 21.6592 7.17037 21.7519C7.08096 21.8446 7.02089 21.9616 6.99766 22.0882C6.97443 22.2149 6.98907 22.3456 7.03976 22.464C7.09045 22.5824 7.17493 22.6832 7.28263 22.7538C7.39032 22.8244 7.51645 22.8617 7.64523 22.8609C7.73305 22.8621 7.82019 22.8453 7.90125 22.8115C7.98232 22.7778 8.0556 22.7277 8.11658 22.6645C8.17755 22.6013 8.22491 22.5262 8.25575 22.444C8.28659 22.3618 8.30024 22.2741 8.29587 22.1864Z" fill="white"/>
<path d="M9.49609 22.1856C9.49609 21.1378 10.2445 20.6309 10.9131 20.6309C11.0681 20.6213 11.2233 20.6468 11.367 20.7056C11.5108 20.7643 11.6394 20.8548 11.7434 20.9702H11.7613V20.6868H12.7593V23.6805H11.7613V23.3991H11.7434C11.6394 23.5145 11.5108 23.6049 11.367 23.6636C11.2233 23.7224 11.0681 23.7479 10.9131 23.7384C10.2525 23.7384 9.49609 23.2314 9.49609 22.1856ZM11.7833 22.1856C11.7794 22.0571 11.7377 21.9327 11.6636 21.8277C11.5894 21.7228 11.4859 21.642 11.3661 21.5954C11.2463 21.5489 11.1155 21.5386 10.9899 21.5659C10.8643 21.5932 10.7495 21.6569 10.6599 21.749C10.5702 21.8411 10.5097 21.9575 10.4858 22.0838C10.4619 22.2101 10.4757 22.3406 10.5254 22.4591C10.5752 22.5776 10.6588 22.6788 10.7657 22.7501C10.8726 22.8215 10.9982 22.8597 11.1267 22.8602C11.2152 22.8631 11.3034 22.8476 11.3856 22.8145C11.4678 22.7814 11.5422 22.7315 11.604 22.668C11.6658 22.6045 11.7137 22.5288 11.7446 22.4457C11.7754 22.3626 11.7886 22.2741 11.7833 22.1856Z" fill="white"/>
<path d="M13.0928 22.8744L13.8751 22.6628C13.8931 22.7479 13.9394 22.8244 14.0065 22.8799C14.0735 22.9353 14.1574 22.9665 14.2444 22.9682C14.3821 22.9682 14.4978 22.9043 14.4978 22.7686C14.4978 22.7067 14.4639 22.6249 14.2982 22.579L13.8592 22.4173C13.3642 22.2457 13.1507 21.9164 13.1507 21.5312C13.1507 20.9544 13.6756 20.6211 14.2803 20.6211C14.885 20.6211 15.2942 20.9544 15.392 21.4553L14.6156 21.6549C14.5517 21.4254 14.416 21.3915 14.3202 21.3915C14.2718 21.387 14.2236 21.402 14.1862 21.433C14.1487 21.4641 14.1252 21.5087 14.1206 21.5571C14.1206 21.627 14.1625 21.7068 14.3342 21.7567L14.7433 21.9084C15.0327 22.0002 15.4758 22.2237 15.4758 22.7826C15.4758 23.3813 14.9569 23.7446 14.2603 23.7446C13.6456 23.7386 13.1846 23.4631 13.0928 22.8744Z" fill="white"/>
<path d="M18.7103 22.5714H16.6766C16.7964 22.8149 17.0558 22.9346 17.4011 22.9346C17.6434 22.9423 17.8819 22.8724 18.0817 22.7351L18.5187 23.2021C18.3683 23.3787 18.1796 23.5188 17.9669 23.6114C17.7542 23.7041 17.5231 23.7471 17.2913 23.737C16.4511 23.737 15.6947 23.1721 15.6947 22.1882C15.6861 21.983 15.7198 21.7782 15.7937 21.5866C15.8676 21.3949 15.9801 21.2205 16.1242 21.0742C16.2683 20.9278 16.441 20.8127 16.6314 20.7358C16.8219 20.659 17.0261 20.6221 17.2314 20.6275C18.0018 20.6315 18.9159 21.1544 18.7103 22.5714ZM16.6387 21.8689H17.8362C17.8004 21.7443 17.7231 21.6358 17.617 21.5614C17.511 21.4869 17.3827 21.451 17.2534 21.4597C17.1208 21.4541 16.9898 21.4906 16.8794 21.5641C16.7689 21.6377 16.6846 21.7444 16.6387 21.8689Z" fill="white"/>
<path d="M22.2275 19.5918V23.6812H21.2296V23.3998H21.2136C21.1097 23.5152 20.981 23.6056 20.8373 23.6644C20.6935 23.7231 20.5383 23.7487 20.3833 23.7391C19.7147 23.7391 18.9663 23.2322 18.9663 22.1844C18.9663 21.1366 19.7147 20.6296 20.3833 20.6296C20.5383 20.6201 20.6935 20.6456 20.8373 20.7043C20.981 20.7631 21.1097 20.8535 21.2136 20.9689H21.2296V19.5918H22.2275ZM21.2535 22.1864C21.2496 22.0579 21.2079 21.9334 21.1338 21.8285C21.0596 21.7235 20.9561 21.6427 20.8363 21.5962C20.7166 21.5496 20.5857 21.5393 20.4601 21.5666C20.3345 21.5939 20.2197 21.6576 20.1301 21.7497C20.0405 21.8418 19.9799 21.9583 19.956 22.0846C19.9321 22.2108 19.9459 22.3414 19.9957 22.4599C20.0454 22.5783 20.129 22.6796 20.2359 22.7509C20.3428 22.8222 20.4684 22.8605 20.5969 22.8609C20.6848 22.8628 20.7721 22.8463 20.8534 22.8127C20.9346 22.7791 21.008 22.7291 21.0689 22.6657C21.1299 22.6023 21.177 22.527 21.2074 22.4445C21.2378 22.362 21.2508 22.2741 21.2455 22.1864H21.2535Z" fill="white"/>
</svg>
