<svg width="40" height="40" viewBox="0 0 40 40" fill="none" xmlns="http://www.w3.org/2000/svg">
<g filter="url(#filter0_d_792_1583)">
<circle cx="20" cy="16" r="16" fill="#F89C26"/>
<path fill-rule="evenodd" clip-rule="evenodd" d="M23.1968 14.0267C23.1968 14.0266 23.1968 14.0267 23.1968 14.0267C23.1483 13.5405 22.7678 13.143 22.2772 13.0765C22.2296 13.07 22.1809 13.0667 22.1314 13.0667V12H22.3977C22.8506 12 23.1968 11.6533 23.1968 11.2C23.1968 9.44 21.7585 8 20.0004 8C18.2424 8 16.804 9.44 16.804 11.2C16.804 11.6533 17.1503 12 17.6031 12H17.8695V13.0667C17.82 13.0667 17.7713 13.07 17.7237 13.0765C17.2331 13.143 16.8526 13.5405 16.804 14.0267L16.0049 22.8267C16.0048 22.8283 16.0047 22.8299 16.0045 22.8315C15.9792 23.1235 16.0594 23.4412 16.2713 23.6533C16.2757 23.6578 16.2802 23.6622 16.2847 23.6666C16.4966 23.8721 16.7835 24 17.0704 24H22.9305C23.2174 24 23.5043 23.8722 23.7162 23.6666C23.7207 23.6622 23.7251 23.6578 23.7296 23.6533C23.7381 23.6424 23.7465 23.6313 23.7547 23.62C23.9245 23.3878 24.0203 23.1098 23.9964 22.8315C23.9962 22.8299 23.9961 22.8283 23.9959 22.8267L23.1968 14.0267ZM23.4632 22.88L23.4628 22.8752L22.6641 14.08C22.664 14.0784 22.6638 14.0768 22.6636 14.0752C22.6401 13.8607 22.4787 13.6815 22.2772 13.6215C22.2304 13.6075 22.1813 13.6 22.1314 13.6H17.8695C17.8695 13.6 17.8695 13.6 17.8695 13.6C17.8196 13.6 17.7705 13.6075 17.7237 13.6215C17.5222 13.6815 17.3608 13.8607 17.3373 14.0752C17.3371 14.0768 17.3369 14.0784 17.3368 14.08C17.3368 14.08 17.3368 14.08 17.3368 14.08L16.5381 22.8752L16.5377 22.88C16.5122 23.0333 16.56 23.1621 16.6577 23.2664C16.662 23.271 16.6664 23.2755 16.6709 23.28C16.7774 23.3867 16.9106 23.4667 17.0704 23.4667H22.9305C23.0746 23.4667 23.197 23.4233 23.2978 23.3171C23.3088 23.3055 23.3195 23.2931 23.33 23.28C23.3345 23.2755 23.3388 23.271 23.3431 23.2664C23.4409 23.16 23.4887 23.0078 23.4632 22.88ZM21.5986 13.0667V12H18.4022V13.0667H21.5986ZM22.3977 11.4667C22.5576 11.4667 22.6641 11.36 22.6641 11.2C22.6641 9.73334 21.4654 8.53334 20.0004 8.53334C18.5354 8.53334 17.3368 9.73334 17.3368 11.2C17.3368 11.36 17.4433 11.4667 17.6031 11.4667H22.3977ZM21.5643 17.0009C21.452 16.4289 21.0364 15.7341 19.9997 15.7341C19.9997 15.7341 19.9997 15.7341 19.9997 15.7341C18.7478 15.7341 18.4015 16.7474 18.4015 17.3341C18.4015 17.9207 18.7478 18.9341 19.9997 18.9341C19.9997 18.9341 19.9997 18.9341 19.9997 18.9341C21.0119 18.9341 21.0652 19.8141 21.0652 20.0007C21.0652 20.1874 21.0119 21.0674 19.9997 21.0674C19.9997 21.0674 19.9997 21.0674 19.9997 21.0674C19.2644 21.0674 19.0351 20.6029 18.9647 20.2773C18.9382 20.1547 18.9342 20.0518 18.9342 20.0007C18.9342 19.8407 18.8277 19.7341 18.6679 19.7341C18.5081 19.7341 18.4015 19.8407 18.4015 20.0007C18.4015 20.1016 18.4118 20.2151 18.4351 20.3339C18.5474 20.9059 18.9631 21.6007 19.9997 21.6007C19.9997 21.6007 19.9997 21.6007 19.9997 21.6007C21.2516 21.6007 21.5979 20.5874 21.5979 20.0007C21.5979 19.4141 21.2517 18.4007 19.9997 18.4007C19.9997 18.4007 19.9997 18.4007 19.9997 18.4007C18.9876 18.4007 18.9343 17.5207 18.9343 17.3341C18.9343 17.1474 18.9876 16.2674 19.9997 16.2674C19.9997 16.2674 19.9997 16.2674 19.9997 16.2674C20.7351 16.2674 20.9643 16.7319 21.0347 17.0575C21.0612 17.1801 21.0652 17.283 21.0652 17.3341C21.0652 17.4941 21.1717 17.6007 21.3315 17.6007C21.4914 17.6007 21.5979 17.4941 21.5979 17.3341C21.5979 17.2332 21.5877 17.1197 21.5643 17.0009Z" fill="white"/>
</g>
<defs>
<filter id="filter0_d_792_1583" x="0" y="0" width="40" height="40" filterUnits="userSpaceOnUse" color-interpolation-filters="sRGB">
<feFlood flood-opacity="0" result="BackgroundImageFix"/>
<feColorMatrix in="SourceAlpha" type="matrix" values="0 0 0 0 0 0 0 0 0 0 0 0 0 0 0 0 0 0 127 0" result="hardAlpha"/>
<feOffset dy="4"/>
<feGaussianBlur stdDeviation="2"/>
<feComposite in2="hardAlpha" operator="out"/>
<feColorMatrix type="matrix" values="0 0 0 0 0 0 0 0 0 0 0 0 0 0 0 0 0 0 0.25 0"/>
<feBlend mode="normal" in2="BackgroundImageFix" result="effect1_dropShadow_792_1583"/>
<feBlend mode="normal" in="SourceGraphic" in2="effect1_dropShadow_792_1583" result="shape"/>
</filter>
</defs>
</svg>
