<svg width="26" height="26" viewBox="0 0 26 26" fill="none" xmlns="http://www.w3.org/2000/svg">
<path d="M24.9963 12.9957C24.9973 15.0935 24.4484 17.155 23.4041 18.9744C22.3598 20.7938 20.8568 22.3077 19.0448 23.3649C17.2329 24.4221 15.1755 24.9858 13.0777 24.9997C10.9799 25.0136 8.91518 24.4773 7.0894 23.4442C5.26361 22.4111 3.74061 20.9173 2.6723 19.1119C1.60399 17.3065 1.02773 15.2525 1.00098 13.1549C0.974225 11.0572 1.49793 8.98922 2.51985 7.15715C3.54177 5.32507 5.02618 3.79296 6.82503 2.71362C6.92229 2.65476 7.01954 2.59845 7.11679 2.54343C8.91368 1.53158 10.9411 1 13.0032 1C15.0654 1 17.0928 1.53158 18.8897 2.54343C18.9268 2.5639 18.9639 2.58438 18.9998 2.60613L19.1815 2.71234C20.9553 3.77936 22.423 5.28707 23.4419 7.08897C24.4608 8.89088 24.9962 10.9257 24.9963 12.9957V12.9957Z" stroke="#B0B0B0" stroke-width="1.5" stroke-miterlimit="10"/>
<path d="M17.4864 17.5H17.4863H8.51367H8.51357C7.84881 17.5001 7.19149 17.3815 6.57953 17.1517C5.96761 16.9219 5.41455 16.5861 4.95085 16.1657C4.48725 15.7453 4.1224 15.2489 3.87453 14.7063C3.62673 14.1638 3.5 13.5844 3.5 13.0006C3.5 11.8236 4.0151 10.6836 4.95082 9.835C5.88816 8.98489 7.16905 8.5 8.51367 8.5H17.4863C18.8309 8.5 20.1118 8.98489 21.0492 9.835C21.9849 10.6836 22.5 11.8236 22.5 13.0006C22.5 13.5844 22.3733 14.1638 22.1255 14.7063C21.8776 15.2489 21.5128 15.7453 21.0492 16.1657C20.5855 16.5861 20.0324 16.9219 19.4205 17.1517C18.8085 17.3815 18.1512 17.5001 17.4864 17.5Z" stroke="#B0B0B0"/>
<path d="M18.5187 14.1528C18.404 14.154 18.2914 14.126 18.1943 14.0723L16.5662 13.1475L14.9356 14.0723C14.8022 14.1474 14.6403 14.1729 14.4855 14.1431C14.3307 14.1133 14.1957 14.0307 14.1101 13.9135C14.0248 13.796 13.996 13.6536 14.0301 13.5175C14.0642 13.3814 14.1584 13.2628 14.292 13.1877L16.2444 12.0839C16.3409 12.0291 16.4533 12 16.5681 12C16.683 12 16.7954 12.0291 16.8919 12.0839L18.8443 13.1877C18.9106 13.2248 18.9679 13.273 19.0129 13.3295C19.0579 13.3861 19.0898 13.45 19.1067 13.5174C19.1236 13.5848 19.1252 13.6545 19.1114 13.7225C19.0976 13.7905 19.0686 13.8554 19.0262 13.9135C18.9712 13.9876 18.8959 14.0483 18.8072 14.0902C18.7185 14.132 18.6193 14.1535 18.5187 14.1528Z" fill="#B0B0B0"/>
<path d="M10.1614 14.1538C10.0599 14.1548 9.96016 14.1268 9.87422 14.0734L8.42573 13.1495L6.97612 14.0734C6.91718 14.1104 6.85144 14.1355 6.78265 14.1474C6.71386 14.1593 6.64337 14.1577 6.57522 14.1426C6.50706 14.1276 6.44258 14.0994 6.38545 14.0597C6.32832 14.0201 6.27967 13.9696 6.24227 13.9114C6.20451 13.8534 6.17871 13.7886 6.16635 13.7207C6.15398 13.6529 6.1553 13.5833 6.17021 13.5159C6.18513 13.4486 6.21336 13.3848 6.25328 13.3282C6.29319 13.2717 6.34402 13.2234 6.40284 13.1863L8.13966 12.0837C8.22524 12.0291 8.32497 12 8.42687 12C8.52876 12 8.62849 12.0291 8.71407 12.0837L10.4509 13.1863C10.5694 13.2615 10.653 13.3801 10.6831 13.516C10.7132 13.652 10.6874 13.7942 10.6115 13.9114C10.5631 13.9858 10.4965 14.0471 10.4178 14.0895C10.3392 14.1318 10.251 14.1539 10.1614 14.1538Z" fill="#B0B0B0"/>
</svg>
