<svg width="30" height="30" viewBox="0 0 30 30" fill="none" xmlns="http://www.w3.org/2000/svg">
<path d="M0.00177973 15.1868C-0.0286652 13.2182 0.331765 11.263 1.0622 9.43467C1.19547 9.09858 1.34034 8.76636 1.50066 8.44186C1.79533 7.82728 2.13491 7.23527 2.51665 6.67063C2.5688 6.5953 2.59585 6.49293 2.72526 6.50452C2.77355 6.50452 2.82956 6.45623 2.81604 6.41567C2.74844 6.21092 2.91069 6.11048 3.0092 5.98493C3.93171 4.75475 5.03941 3.67506 6.29282 2.78436C6.56903 2.59121 6.85683 2.39805 7.1427 2.22035C7.20838 2.17786 7.27212 2.08901 7.37256 2.1682C7.3996 2.18945 7.44982 2.1682 7.44982 2.14116C7.44982 1.948 7.62559 1.93641 7.73762 1.8746C9.27199 1.01492 10.9491 0.439723 12.6882 0.176776C14.0712 -0.039157 15.4779 -0.0573669 16.8661 0.122693C17.0139 0.160302 17.1656 0.180399 17.3181 0.182571C17.432 0.170982 17.5827 0.182571 17.5344 0.400836C17.5271 0.434403 17.528 0.469219 17.5368 0.502403C17.5457 0.535588 17.5623 0.566186 17.5853 0.591668C17.6084 0.61715 17.6371 0.636783 17.6693 0.648942C17.7014 0.661102 17.7359 0.665439 17.7701 0.661594C17.9033 0.661594 17.942 0.537975 17.9111 0.410493C17.8647 0.217339 18.0076 0.302327 18.0656 0.315848C18.4364 0.400836 18.8092 0.483892 19.1762 0.590127C21.5837 1.28605 23.7762 2.57899 25.5503 4.34891C25.616 4.41459 25.7435 4.45901 25.6894 4.59422C25.6894 4.60774 25.7049 4.64251 25.7203 4.6483C26.2186 4.84146 26.433 5.33593 26.7595 5.70293C27.0997 6.08246 27.3953 6.49984 27.6403 6.94684C27.7986 7.2443 28.0266 7.4954 28.1618 7.80252C28.297 8.10963 28.4824 8.42641 28.6292 8.74511C28.776 9.06382 28.9093 9.38639 29.031 9.71088C29.1527 10.0354 29.2801 10.3831 29.3729 10.7269C29.651 11.7815 29.9214 12.8516 29.9523 13.939C29.9523 14.3253 30.0161 14.6981 29.9929 15.0786C29.9697 15.4592 29.9813 15.8744 29.9427 16.2704C29.904 16.6664 29.8635 17.0778 29.7901 17.4776C29.7167 17.8775 29.6278 18.2502 29.5525 18.6366C29.5036 18.8522 29.439 19.0639 29.3593 19.2701C29.2203 19.6564 29.1507 20.0736 28.973 20.4541C28.7953 20.8347 28.6311 21.2596 28.438 21.6517C28.2448 22.0438 28.0324 22.4243 27.8025 22.799C27.7523 22.8782 27.733 23.0057 27.5842 22.9613C27.5514 22.9516 27.5147 22.9903 27.5282 23.0192C27.6306 23.2491 27.4355 23.3688 27.3351 23.5079C25.243 26.5659 22.0848 28.7328 18.4789 29.5846C18.3182 29.6543 18.1388 29.6685 17.969 29.6251C17.9033 29.5981 17.8338 29.7314 17.7218 29.7507C15.1268 30.2249 12.4528 30.0104 9.96662 29.1287C9.23853 28.8745 8.53298 28.5599 7.85737 28.188C7.73778 28.1229 7.63264 28.0342 7.54833 27.9273C7.52708 27.8983 7.50776 27.8674 7.48072 27.8848C7.34938 27.9775 7.27212 27.8578 7.18906 27.8037C6.516 27.3923 5.87543 26.9299 5.27297 26.4207C5.18218 26.3415 5.07981 26.2739 5.07981 26.129C4.90404 26.1696 4.83451 26.0228 4.736 25.9359C2.43015 23.7953 0.867118 20.9751 0.274128 17.8852C0.0875239 16.998 -0.00377664 16.0934 0.00177973 15.1868V15.1868ZM23.0509 4.16349C22.906 4.0418 22.7052 3.98965 22.624 3.77718C22.6105 3.73855 22.5622 3.66322 22.4985 3.68833C22.3729 3.73661 22.3053 3.6439 22.2223 3.59175C21.2588 2.98868 20.2248 2.50667 19.1434 2.15661C17.5346 1.63901 15.8424 1.4306 14.1561 1.54238C13.9677 1.52547 13.778 1.52871 13.5902 1.55204C13.2445 1.63896 12.8717 1.77223 12.495 1.64282C12.4776 1.64282 12.439 1.65248 12.4371 1.66213C12.3965 1.82632 12.2439 1.78575 12.1454 1.80893C11.1889 2.0171 10.2576 2.32795 9.36784 2.73607C8.66563 3.05895 7.99173 3.44016 7.35324 3.87569C5.83794 4.92264 4.55178 6.26729 3.57321 7.82763C3.36074 8.16565 3.17531 8.52298 2.97056 8.8668C2.76582 9.21061 2.74457 9.65873 2.3911 9.91177C2.38425 9.91963 2.37916 9.92887 2.37616 9.93886C2.37316 9.94886 2.37233 9.95937 2.37372 9.96971C2.52631 10.1088 2.41428 10.1242 2.29646 10.1455C2.28886 10.1482 2.28192 10.1525 2.27608 10.1581C2.27023 10.1636 2.26562 10.1704 2.26253 10.1778C2.25944 10.1853 2.25794 10.1933 2.25812 10.2014C2.25831 10.2094 2.26018 10.2174 2.26362 10.2247C2.2894 10.3003 2.29895 10.3805 2.29163 10.46C2.2843 10.5396 2.26028 10.6167 2.22113 10.6863C2.05501 11.1769 1.94685 11.6811 1.80584 12.1775C1.70347 12.5348 1.80584 12.9501 1.51032 13.2553C1.51032 13.2553 1.51032 13.292 1.52577 13.2939C1.67063 13.3441 1.59724 13.4542 1.58951 13.5373C1.47384 14.6461 1.49264 15.7649 1.64552 16.8692C2.24173 20.8392 4.19581 23.958 7.50776 26.2256C8.6019 26.9748 9.80712 27.5471 11.0792 27.9215C12.9549 28.4921 14.9329 28.6444 16.8738 28.3677C19.3464 28.0555 21.6733 27.0253 23.5666 25.4047C27.5881 21.9395 29.114 17.553 28.2178 12.3301C28.0349 11.3135 27.7165 10.3261 27.2713 9.39411C26.963 8.71372 26.5979 8.06048 26.18 7.44132C25.4267 6.32903 24.5128 5.33444 23.4681 4.48992C23.3812 4.42038 23.275 4.37016 23.3426 4.20984C23.3481 4.18402 23.3484 4.15734 23.3432 4.13143C23.3381 4.10552 23.3276 4.08095 23.3126 4.05922C23.2976 4.0375 23.2783 4.01909 23.2559 4.00513C23.2334 3.99117 23.2084 3.98195 23.1823 3.97806C23.02 3.94715 23.1359 4.11713 23.0509 4.16349ZM0.894154 13.2186C0.872907 12.9887 0.685547 13.149 0.587038 13.0988C0.488529 13.0486 0.465351 13.0988 0.507845 13.1703C0.565791 13.2707 0.442172 13.4851 0.666231 13.4716C0.698964 13.4739 0.731779 13.4686 0.762193 13.4563C0.792607 13.444 0.819823 13.4249 0.841782 13.4006C0.863741 13.3762 0.879867 13.3471 0.888941 13.3156C0.898014 13.2841 0.899797 13.2509 0.894154 13.2186ZM4.34583 6.2708C4.34583 6.21092 4.14108 6.07765 4.06575 6.07765C4.02519 6.07765 3.99815 6.11628 4.0078 6.13753C4.06932 6.23867 4.16762 6.31205 4.28208 6.34227C4.30719 6.36158 4.34583 6.32102 4.34583 6.2708Z" fill="white"/>
<path d="M21.6408 8.36733C21.5326 8.38664 21.4476 8.25916 21.3626 8.34608C21.3538 8.35782 21.3482 8.3716 21.3461 8.38612C21.3441 8.40064 21.3458 8.41544 21.351 8.42914C21.3866 8.4668 21.4325 8.49325 21.4829 8.50526C21.5333 8.51726 21.5862 8.51431 21.635 8.49674C21.8281 8.39823 21.9015 8.53151 21.9962 8.63775C22.5909 9.28148 23.0869 10.0099 23.468 10.7991C23.7602 11.367 23.9864 11.9665 24.1421 12.5858C24.3902 13.5731 24.484 14.5928 24.4202 15.6087C24.3795 16.185 24.2936 16.7572 24.1634 17.32C24.0244 17.8831 23.8303 18.4311 23.5839 18.9561C23.049 20.1229 22.2803 21.1676 21.3255 22.0254C20.3706 22.8832 19.2499 23.536 18.0326 23.9433C15.3941 24.8202 12.8677 24.5691 10.4262 23.2789C10.3412 23.2344 10.1906 23.2286 10.233 23.0625C10.233 23.0355 10.2137 23.0104 10.1906 23.0239C9.98001 23.134 9.87378 22.9389 9.74243 22.8559C9.3593 22.6123 8.99918 22.3343 8.66656 22.0253C8.60669 21.9712 8.50625 21.9326 8.57578 21.8167C8.5951 21.7858 8.57578 21.7375 8.53908 21.7491C8.31309 21.8399 8.25901 21.6255 8.15277 21.525C7.29273 20.6381 6.62007 19.587 6.17487 18.4345C6.1459 18.3573 6.05705 18.2665 6.18839 18.1873C6.22316 18.1661 6.21157 18.0927 6.17101 18.0927C5.97785 18.0927 5.99137 17.915 5.96047 17.8029C5.01401 14.4111 5.66301 11.369 7.95189 8.68603C7.98033 8.63736 8.01851 8.59508 8.06404 8.56184C8.10958 8.5286 8.16149 8.50513 8.21651 8.49288C8.25321 8.49288 8.30536 8.47936 8.3073 8.433C8.31695 8.19735 8.51783 8.10657 8.65691 7.97523C9.14903 7.52231 9.69072 7.12641 10.2717 6.79505C10.3431 6.75449 10.4185 6.65405 10.5189 6.76415C10.5382 6.78732 10.5711 6.76415 10.5923 6.73517C10.6717 6.61808 10.7789 6.52253 10.9043 6.45713C11.0297 6.39172 11.1694 6.3585 11.3108 6.36045C11.3263 6.36045 11.3495 6.37397 11.3533 6.36045C11.6353 5.98767 12.0989 6.02243 12.4794 5.8737C12.6906 5.78082 12.9173 5.72841 13.1477 5.71918C13.3887 5.70301 13.6275 5.6629 13.8605 5.59942C14.2773 5.53176 14.7003 5.51038 15.1218 5.53568C15.8597 5.55096 16.5937 5.64813 17.3102 5.82542C18.1586 6.03769 18.9727 6.36867 19.7285 6.80857C20.3724 7.1773 20.9691 7.62289 21.5055 8.13554C21.5438 8.16183 21.5757 8.19624 21.5991 8.23631C21.6225 8.27638 21.6367 8.32112 21.6408 8.36733ZM8.20879 20.5283C10.1403 22.7206 12.3925 23.7656 15.1334 23.7521C15.8889 23.7458 16.6401 23.6366 17.3662 23.4276C17.5111 23.3851 17.6367 23.3175 17.6888 23.5609C17.7062 23.6497 17.8086 23.8641 17.938 23.8139C18.0674 23.7637 17.965 23.5782 17.9245 23.4681C17.8646 23.304 17.9109 23.2557 18.0674 23.1958C19.2122 22.7705 20.2548 22.1094 21.1277 21.2552C22.0005 20.401 22.684 19.3729 23.1338 18.2375C23.1744 18.139 23.1918 18.0193 23.3424 18.0173C23.4081 18.0173 23.4564 17.9323 23.4062 17.9034C23.2323 17.8049 23.3424 17.689 23.3695 17.5827C23.4467 17.2969 23.5259 17.0149 23.5878 16.7271C23.8685 15.2542 23.7809 13.7347 23.3328 12.3038C23.0019 11.3312 22.5166 10.4182 21.8957 9.59965C21.7798 9.44706 21.5384 9.32344 21.6504 9.05496C21.6529 9.04738 21.6535 9.03933 21.6522 9.03147C21.6509 9.02361 21.6478 9.01617 21.6431 9.00975C21.6384 9.00334 21.6322 8.99814 21.6251 8.99458C21.618 8.99102 21.6101 8.98921 21.6021 8.98929C21.5828 8.98929 21.55 9.00281 21.5461 9.01633C21.4746 9.24811 21.409 9.03564 21.3781 9.00281C20.9043 8.50273 20.3741 8.05937 19.7981 7.68163C17.9875 6.48397 15.7943 6.00716 13.65 6.345C13.4182 6.37784 13.1709 6.39136 12.9585 6.43771C12.733 6.49683 12.5123 6.57236 12.2979 6.66371C11.791 6.84298 11.2967 7.05592 10.8183 7.30112C10.6161 7.38467 10.4221 7.48684 10.2388 7.6063C9.99933 7.80911 9.74437 7.99261 9.49133 8.16645C9.32522 8.2862 9.23057 8.50447 8.9872 8.51606C8.96209 8.79613 8.69747 8.90237 8.54488 9.07427C7.79667 9.92166 7.20305 10.8938 6.79103 11.9465C6.54477 12.574 6.37235 13.228 6.27724 13.8954C6.22374 14.3246 6.2063 14.7575 6.22509 15.1895C6.27577 16.9821 6.86764 18.7173 7.92292 20.1671C7.95769 20.2154 8.03495 20.2618 8.00211 20.3275C7.96928 20.3931 7.87656 20.3429 7.80896 20.341C7.74135 20.339 7.6158 20.2985 7.58297 20.4124C7.57035 20.4593 7.57147 20.5088 7.5862 20.555C7.60093 20.6013 7.62863 20.6423 7.66602 20.6732C7.89588 20.8625 8.06778 20.8142 8.20879 20.5283Z" fill="white"/>
<path d="M14.7626 4.5875C14.8051 3.99452 14.8515 3.40153 14.8901 2.80855C14.8901 2.67141 14.9384 2.61539 15.0833 2.62891C15.4058 2.66175 15.7323 2.66755 16.049 2.69652C16.5879 2.74481 16.8835 3.15236 16.7367 3.62752C16.7152 3.71667 16.6705 3.79852 16.607 3.86469C16.5435 3.93087 16.4636 3.97901 16.3755 4.00417C16.3069 4.02245 16.2443 4.05842 16.1939 4.10848C16.1611 4.14325 16.1476 4.2263 16.2094 4.20699C16.4025 4.14518 16.3697 4.30936 16.4025 4.39048C16.4817 4.58364 16.5397 4.79611 16.6131 4.99699C16.6575 5.11095 16.6324 5.14765 16.5049 5.15151C16.136 5.16117 16.0935 5.13606 15.9834 4.79418C15.9351 4.64352 15.8887 4.49092 15.8404 4.34026C15.8319 4.29388 15.8133 4.24994 15.7859 4.21157C15.7585 4.1732 15.723 4.14136 15.6818 4.1183C15.6407 4.09524 15.595 4.08154 15.5479 4.07818C15.5009 4.07481 15.4537 4.08186 15.4097 4.09882C15.3131 4.122 15.3112 4.18767 15.3054 4.25914C15.2786 4.45111 15.2657 4.64477 15.2668 4.8386C15.2803 5.09163 15.1335 5.06846 14.9654 5.06073C14.7974 5.053 14.6815 5.0221 14.7356 4.81156C14.7566 4.73908 14.7702 4.66466 14.7762 4.58943L14.7626 4.5875ZM15.3865 3.25667C15.346 3.73569 15.346 3.73569 15.7728 3.74342C15.8211 3.74342 15.8694 3.74342 15.9158 3.74342C15.9968 3.7425 16.0744 3.71055 16.1326 3.65414C16.1909 3.59773 16.2252 3.52115 16.2287 3.44016C16.2352 3.4005 16.2337 3.35993 16.2243 3.32086C16.2148 3.28179 16.1976 3.24503 16.1736 3.21276C16.1496 3.1805 16.1194 3.15339 16.0847 3.13306C16.0501 3.11273 16.0116 3.09958 15.9718 3.09442C15.8713 3.0751 15.7651 3.07896 15.6666 3.05385C15.4464 2.99204 15.2957 3.0017 15.3865 3.25667V3.25667Z" fill="white"/>
<path d="M14.6429 27.3707C14.3184 27.334 13.9939 27.3089 13.6771 27.2606C13.5448 27.2445 13.4217 27.1843 13.3278 27.0897C13.2339 26.9951 13.1746 26.8715 13.1595 26.7391C13.1191 26.6036 13.1265 26.4583 13.1803 26.3276C13.234 26.1968 13.331 26.0884 13.455 26.0205C13.483 26.0113 13.5086 25.9959 13.5297 25.9753C13.5508 25.9547 13.5669 25.9295 13.5768 25.9017C13.5867 25.874 13.5901 25.8443 13.5867 25.815C13.5833 25.7857 13.5733 25.7576 13.5574 25.7327C13.4685 25.4855 13.3913 25.2363 13.3063 24.9872C13.2715 24.8906 13.287 24.8481 13.4067 24.8423C13.793 24.8249 13.8317 24.8423 13.9398 25.2112C14.0055 25.4276 14.1465 25.6458 13.9398 25.8641C13.9334 25.869 13.9282 25.8752 13.9247 25.8824C13.9211 25.8896 13.9192 25.8976 13.9192 25.9056C13.9192 25.9137 13.9211 25.9216 13.9247 25.9288C13.9282 25.936 13.9334 25.9423 13.9398 25.9471C13.9649 25.9607 14.0132 25.9665 14.0248 25.9471C14.1214 25.8332 14.2412 25.8834 14.3532 25.8989C14.5463 25.922 14.6101 25.8428 14.6139 25.6613C14.6178 25.4797 14.6506 25.275 14.6545 25.0915C14.6584 24.908 14.7994 24.9389 14.9075 24.9466C15.0157 24.9543 15.1857 24.9196 15.1741 25.1243C15.1777 25.4259 15.1538 25.7272 15.1026 26.0244C15.0724 26.1685 15.062 26.316 15.0717 26.4629C15.0692 26.6456 15.0569 26.8281 15.035 27.0095C15.0138 27.39 15.0949 27.3842 14.6429 27.3707ZM14.5367 26.5981C14.5579 26.2736 14.5579 26.2736 14.274 26.2601C14.1795 26.2523 14.0845 26.2523 13.9901 26.2601C13.7563 26.2852 13.5361 26.7043 13.7061 26.8125C13.7665 26.8766 13.8419 26.9245 13.9257 26.9519C14.0094 26.9792 14.0986 26.9851 14.1851 26.9689C14.4517 26.8975 14.6989 26.9496 14.5367 26.5981Z" fill="white"/>
<path d="M21.7299 6.32887C21.9539 6.0121 22.1818 5.70112 22.3924 5.38241C22.487 5.23948 22.5566 5.20664 22.7072 5.31867C22.8579 5.4307 22.825 5.48092 22.7401 5.59875C22.346 6.14731 21.9597 6.69908 21.5811 7.25408C21.4749 7.40861 21.4459 7.38156 21.2991 7.25408C20.8896 6.90447 21.2412 6.5143 21.189 6.15117C21.182 5.92059 21.2008 5.68994 21.245 5.46354C21.245 5.40752 21.2875 5.32254 21.2122 5.29549C21.1369 5.26845 21.1272 5.3631 21.0944 5.41139C20.851 5.76293 20.6018 6.11254 20.3623 6.46794C20.2754 6.59736 20.2039 6.52782 20.1325 6.46794C20.061 6.40806 19.9181 6.38875 20.0243 6.24002C20.4415 5.66056 20.8549 5.05791 21.2702 4.46686C21.2953 4.43016 21.3184 4.38574 21.3803 4.39346C21.4915 4.434 21.5898 4.50387 21.6646 4.59568C21.7394 4.68749 21.788 4.79781 21.8052 4.91498C21.7724 5.3264 21.7318 5.73782 21.6951 6.14924C21.6932 6.21298 21.6603 6.25934 21.7299 6.32887Z" fill="white"/>
<path d="M22.626 4.4165C22.6817 4.39751 22.7417 4.39526 22.7987 4.41002C22.8557 4.42478 22.9071 4.4559 22.9466 4.49955C25.786 6.70731 27.4915 9.57372 28.0266 13.1336C28.1752 14.0446 28.2063 14.9709 28.1193 15.8899C28.0807 16.253 28.0807 16.6161 28.0208 16.9773C27.8087 18.3137 27.4006 19.6115 26.8097 20.8288C26.2044 22.0582 25.4084 23.184 24.4513 24.1646C24.1789 24.4428 23.8873 24.7035 23.6014 24.9681C23.557 25.0068 23.499 25.1111 23.4295 25.028C23.36 24.945 23.4759 24.9276 23.5164 24.8928C24.3398 24.2014 25.0684 23.4045 25.6836 22.5228C26.6823 21.1034 27.3864 19.4982 27.7542 17.8021C28.241 15.5597 28.1318 13.2288 27.4375 11.0417C27.1187 10.05 26.685 9.09904 26.1453 8.20812C25.68 7.44573 25.1369 6.73368 24.5247 6.08342C23.9491 5.46615 23.3152 4.90598 22.6318 4.4107L22.626 4.4165Z" fill="white"/>
<path d="M8.1913 23.652C7.96724 23.9668 7.73739 24.2758 7.52105 24.5965C7.43607 24.722 7.37426 24.7471 7.24098 24.6544C7.1077 24.5617 7.08646 24.4941 7.1869 24.3589C7.50946 23.9243 7.81851 23.48 8.12949 23.0377C8.21448 22.916 8.38059 22.8542 8.39798 22.6765C8.39798 22.6321 8.45785 22.5355 8.53512 22.5993C8.64908 22.6939 8.84803 22.7209 8.83257 22.9296C8.80746 23.2386 8.77849 23.5476 8.75145 23.8548C8.72827 24.1213 8.70316 24.3879 8.67998 24.6544C8.79201 24.666 8.8036 24.5868 8.83644 24.5405C9.07788 24.2082 9.31353 23.8721 9.55497 23.5399C9.5936 23.4878 9.61871 23.3873 9.71143 23.4375C9.80622 23.4808 9.8886 23.5472 9.95094 23.6307C9.98377 23.6886 9.90651 23.7872 9.82346 23.8007C9.66121 23.8239 9.76165 23.9649 9.70177 24.0421C9.34636 24.5173 9.00834 25.0079 8.66646 25.4927C8.61238 25.568 8.56216 25.6028 8.47331 25.5313C8.38445 25.4599 8.29367 25.4019 8.20482 25.3382C8.16619 25.3092 8.10245 25.2687 8.12756 25.2281C8.28015 24.9673 8.09279 24.6776 8.22414 24.3859C8.30333 24.2063 8.24345 23.9127 8.1913 23.652Z" fill="white"/>
<path d="M22.5604 24.5452C22.4651 24.5488 22.3699 24.5337 22.2803 24.5007C22.1722 24.4544 22.0041 24.4293 21.9983 24.3076C21.9925 24.1859 22.1548 24.0816 22.2456 23.9753C22.3074 23.9039 22.3595 23.9889 22.4078 24.014C22.4807 24.0612 22.5668 24.0837 22.6534 24.0782C22.7401 24.0726 22.8226 24.0393 22.8888 23.9831C22.9573 23.9331 23.0075 23.8619 23.0316 23.7806C23.0557 23.6993 23.0523 23.6123 23.0221 23.533C22.9649 23.3461 22.8685 23.1736 22.7392 23.0271C22.61 22.8805 22.4509 22.7632 22.2726 22.6831C22.2017 22.6515 22.1237 22.6391 22.0465 22.6472C21.9693 22.6553 21.8955 22.6836 21.8327 22.7292C21.7698 22.7748 21.7201 22.8361 21.6885 22.9071C21.6569 22.978 21.6445 23.056 21.6526 23.1332C21.656 23.1714 21.6675 23.2085 21.6865 23.2418C21.7055 23.2751 21.7315 23.304 21.7627 23.3263C21.8477 23.3785 21.8921 23.2877 21.9365 23.2452C22.0698 23.1158 22.1838 23.1409 22.3055 23.2607C22.3924 23.3476 22.3943 23.4133 22.3055 23.4944C22.1123 23.6566 21.9192 23.9406 21.726 23.9599C21.5328 23.9792 21.3783 23.6412 21.2025 23.4654C21.1166 23.3846 21.0347 23.2995 20.9572 23.2105C20.9147 23.1602 20.8394 23.1158 20.9109 23.0308C20.9824 22.9458 21.0326 22.94 21.104 23.0038C21.1755 23.0675 21.2624 23.0733 21.2972 22.9265C21.3158 22.7821 21.3695 22.6445 21.4536 22.5256C21.5376 22.4067 21.6495 22.3102 21.7794 22.2445C21.9093 22.1788 22.0533 22.1459 22.1989 22.1486C22.3445 22.1513 22.4871 22.1896 22.6145 22.2601C22.8424 22.3677 23.0418 22.5275 23.1965 22.7265C23.3512 22.9255 23.4569 23.1581 23.505 23.4055C23.527 23.5439 23.5193 23.6853 23.4823 23.8204C23.4453 23.9556 23.38 24.0812 23.2906 24.1891C23.2012 24.2969 23.0898 24.3845 22.9639 24.4459C22.838 24.5073 22.7004 24.5411 22.5604 24.5452V24.5452Z" fill="white"/>
<path d="M7.37234 5.49609C7.45933 5.50459 7.54575 5.51814 7.63116 5.53666C7.75285 5.57336 7.92283 5.61006 7.94214 5.72981C7.96146 5.84957 7.80307 5.94421 7.71808 6.04658C7.6331 6.14896 7.57515 6.04658 7.50948 6.02341C7.20236 5.89786 6.79094 6.15861 6.81219 6.47925C6.81219 6.53913 6.91842 6.58742 6.95126 6.65502C7.14565 7.01023 7.44155 7.29941 7.80114 7.48559C7.81288 7.49564 7.82675 7.5029 7.8417 7.50683C7.99623 7.51842 8.32652 7.10121 8.29175 6.92737C8.29007 6.88301 8.27779 6.8397 8.25595 6.80106C8.23411 6.76242 8.20334 6.72956 8.1662 6.70524C8.07542 6.66275 8.02134 6.75739 7.97305 6.81148C7.84943 6.95634 7.76058 6.94668 7.64082 6.79796C7.55004 6.68399 7.54811 6.61832 7.65821 6.52561C7.81917 6.39684 7.97369 6.2597 8.12178 6.11419C8.2087 6.0292 8.27051 6.02727 8.35163 6.11419C8.55831 6.36722 8.77271 6.60094 8.98131 6.83659C9.02381 6.88488 9.10687 6.92737 9.03347 7.01429C9.0235 7.03154 9.00974 7.04629 8.99322 7.05744C8.97671 7.06859 8.95787 7.07583 8.93815 7.07862C8.91842 7.08141 8.89832 7.07968 8.87936 7.07355C8.8604 7.06743 8.84309 7.05707 8.82872 7.04326C8.69738 6.94475 8.66454 7.01236 8.63557 7.14563C8.61721 7.27396 8.57062 7.39663 8.49917 7.50479C8.42771 7.61295 8.33316 7.70393 8.22233 7.77117C8.11149 7.83841 7.98713 7.88024 7.85819 7.89365C7.72925 7.90706 7.59894 7.89171 7.47664 7.84872C7.22361 7.75987 6.95512 7.67101 6.85661 7.34845C6.78658 7.24971 6.71113 7.15492 6.63062 7.06451C6.49735 6.87135 6.33123 6.69945 6.51087 6.44641C6.56688 6.36722 6.42395 6.38654 6.42781 6.30541C6.4432 6.1918 6.48877 6.08438 6.55977 5.99436C6.63077 5.90433 6.7246 5.83499 6.8315 5.79355C6.93194 5.76458 6.85275 5.668 6.92808 5.62937C7.06282 5.54879 7.21549 5.50299 7.37234 5.49609Z" fill="white"/>
<path d="M23.4528 20.2578L23.5977 20.3563C24.1482 20.7619 24.6967 21.1695 25.2511 21.5693C25.3689 21.6543 25.4037 21.7142 25.3013 21.8455C25.0251 22.2029 24.7547 22.5679 24.4958 22.9388C24.3857 23.0991 24.3027 23.0122 24.2119 22.9388C24.1211 22.8654 24.0381 22.8132 24.1462 22.68C24.3162 22.4714 24.4649 22.2454 24.631 22.031C24.7122 21.9247 24.7315 21.8571 24.6021 21.7644C24.2158 21.494 24.322 21.5384 24.0883 21.8378C24.0166 21.9226 23.9521 22.013 23.8951 22.1082C23.7985 22.284 23.702 22.2608 23.561 22.1507C23.42 22.0406 23.4393 21.9943 23.5301 21.8861C23.646 21.7451 23.7406 21.5867 23.8584 21.4476C23.9762 21.3086 23.9299 21.268 23.814 21.183C23.5011 20.9532 23.5049 20.9474 23.2674 21.2641C23.1399 21.4361 23.0066 21.6041 22.8811 21.7818C22.7555 21.9595 22.6879 21.8243 22.6145 21.7663C22.5411 21.7084 22.4001 21.6717 22.5179 21.5172C22.8077 21.1309 23.0858 20.7446 23.3678 20.3583L23.4528 20.2578Z" fill="white"/>
<path d="M8.75547 5.51739C8.7883 5.47876 8.80182 5.4324 8.75547 5.41308C8.46187 5.28367 8.44256 4.9611 8.27451 4.74477C8.21463 4.66558 8.26099 4.62115 8.33439 4.58059C8.7207 4.35846 9.1186 4.12861 9.51843 3.91227C9.63818 3.84853 9.75021 3.82922 9.841 4.01271C9.93178 4.19621 9.81395 4.22905 9.70772 4.28892C9.50104 4.40675 9.2963 4.53037 9.08576 4.63853C8.94476 4.71 8.9042 4.77567 8.99691 4.9302C9.21518 5.29526 9.16689 5.22186 9.46821 5.05768C9.5746 5.00452 9.67779 4.94519 9.77725 4.87998C9.92019 4.77954 9.99938 4.80078 10.0882 4.9611C10.1771 5.12142 10.1249 5.18323 9.98973 5.24697C9.85452 5.31071 9.78112 5.36479 9.67681 5.42274C9.39288 5.58306 9.37936 5.80905 9.63046 6.03118C9.71158 6.10458 9.76373 6.03118 9.82361 6.00993C10.067 5.87665 10.3142 5.74724 10.5479 5.59851C10.7005 5.50193 10.7411 5.59851 10.7932 5.70282C10.8454 5.80712 10.942 5.89597 10.7662 5.99061C10.3587 6.21274 9.96075 6.44067 9.56092 6.67245C9.46048 6.73233 9.39481 6.73233 9.333 6.61837C9.15337 6.29 8.96601 5.96744 8.78058 5.64294C8.75933 5.60044 8.72843 5.56374 8.75547 5.51739Z" fill="white"/>
<path d="M20.6266 24.8658C20.5223 24.8021 20.503 24.8658 20.4334 24.9508C20.3199 25.0855 20.1651 25.1792 19.9931 25.2174C19.8752 25.2502 19.8675 25.0841 19.7999 25.0087C19.7323 24.9334 19.7535 24.8813 19.8385 24.8349C20.0201 24.7383 20.1959 24.6282 20.3794 24.5355C20.5107 24.4698 20.5223 24.4003 20.4489 24.2748C20.1997 23.8575 20.2867 23.9174 19.9158 24.126C19.7381 24.2265 19.5295 24.2439 19.3788 24.4158C19.2745 24.5394 19.1857 24.466 19.1374 24.3404C19.0891 24.2149 18.9442 24.1473 19.149 24.0372C19.5565 23.8228 19.9564 23.5949 20.3562 23.365C20.4682 23.3013 20.5262 23.2993 20.5957 23.4249C20.9253 24.0327 21.2621 24.636 21.6059 25.2347C21.6716 25.3506 21.6696 25.4144 21.5499 25.48C21.1443 25.7002 20.7406 25.9204 20.3427 26.1542C20.1746 26.2546 20.1495 26.1368 20.0819 26.0363C20.0143 25.9359 19.9853 25.8432 20.1321 25.7756C20.3678 25.6597 20.588 25.5148 20.8236 25.3989C20.9897 25.3178 21.0168 25.2232 20.9009 25.0899C20.841 24.9952 20.8507 24.7789 20.6266 24.8658Z" fill="white"/>
<path d="M6.41452 9.05595C6.50917 9.06947 6.53621 8.99028 6.57677 8.9362C6.73902 8.71986 6.89355 8.49967 7.0558 8.28333C7.10022 8.22346 7.17942 8.11529 7.22577 8.23505C7.27213 8.3548 7.62174 8.27174 7.41893 8.54216C7.1292 8.91688 6.85685 9.30319 6.58064 9.6895C6.54587 9.73972 6.5111 9.81119 6.43384 9.74358C6.08037 9.4326 5.66122 9.2182 5.30002 8.90336C5.09537 8.74345 4.88192 8.59513 4.66068 8.4591C4.60467 8.41854 4.53513 8.3915 4.6066 8.29492C4.88667 7.90861 5.16481 7.53583 5.4275 7.136C5.52408 6.99499 5.59362 6.99306 5.7211 7.0935C5.84858 7.19394 5.91425 7.23257 5.78677 7.38323C5.6168 7.57639 5.47773 7.80624 5.31934 8.01485C5.23821 8.12108 5.22662 8.19255 5.35024 8.28526C5.64384 8.50739 5.63997 8.51319 5.85244 8.22152C5.92198 8.12495 6.00117 8.02837 6.06105 7.93179C6.14797 7.78113 6.2291 7.75988 6.37396 7.87771C6.51883 7.99553 6.53428 8.03223 6.42225 8.15585C6.34334 8.24463 6.27346 8.34104 6.21364 8.44365C6.15183 8.54989 6.00311 8.62329 6.04174 8.76236C6.07071 8.8628 6.23489 8.87439 6.23489 9.03084C6.23489 9.09265 6.36237 8.9671 6.41452 9.05595Z" fill="white"/>
<path d="M9.93352 26.0324C10.0031 25.2945 10.0745 24.6069 10.1267 23.9077C10.1402 23.7474 10.1943 23.7532 10.3198 23.7937C10.5632 23.869 10.7332 23.9753 10.6385 24.2766C10.5902 24.4234 10.6636 24.5142 10.8104 24.5567C10.8763 24.5808 10.9408 24.6086 11.0036 24.6397C11.3551 24.7865 11.3551 24.7865 11.6217 24.5026C11.7067 24.4118 12.0544 24.4524 12.1026 24.5605C12.1278 24.6166 12.0737 24.6455 12.0447 24.6784C11.5599 25.2462 11.0789 25.8122 10.5902 26.3839C10.5788 26.4045 10.5632 26.4225 10.5444 26.4366C10.5256 26.4508 10.504 26.4608 10.481 26.4661C10.4581 26.4714 10.4343 26.4718 10.4112 26.4673C10.3881 26.4628 10.3662 26.4534 10.3469 26.4399C10.2925 26.4074 10.234 26.382 10.173 26.3646C9.97408 26.3182 9.8466 26.2197 9.93352 26.0324ZM10.513 25.8392C10.6482 25.6828 10.7544 25.5591 10.8587 25.4336C11.1272 25.1188 11.1118 25.0782 10.7139 24.9623C10.6269 24.9372 10.5651 24.9449 10.5593 25.0396C10.5141 25.3048 10.4985 25.5744 10.513 25.8431V25.8392Z" fill="white"/>
<path d="M17.5155 24.8032C17.4112 25.4503 17.3069 26.0839 17.2045 26.7193C17.2045 26.7348 17.2045 26.7502 17.2045 26.7657C17.133 27.1713 17.0113 27.264 16.5999 27.2563C16.5033 27.2563 16.4782 27.1964 16.4493 27.1327C16.1248 26.4702 15.8061 25.8038 15.4835 25.1432C15.4217 25.0196 15.4506 24.9809 15.5762 24.95C15.9471 24.8747 15.9509 24.8689 16.1248 25.2185C16.1315 25.2456 16.144 25.2709 16.1615 25.2927C16.1789 25.3145 16.2009 25.3323 16.2258 25.3447C16.2508 25.3572 16.2782 25.3641 16.3061 25.365C16.334 25.3659 16.3617 25.3607 16.3874 25.3499C16.4647 25.3344 16.5427 25.3228 16.6212 25.3151C17.0075 25.2591 17.0075 25.261 17.0751 24.8728C17.1156 24.6236 17.3165 24.7183 17.4498 24.6796C17.5831 24.641 17.5058 24.7569 17.5155 24.8032ZM16.7853 26.5996C16.8665 26.5107 16.824 26.4161 16.851 26.3369C16.8703 26.2524 16.8825 26.1665 16.8877 26.08C16.9766 25.5623 16.9012 25.7111 16.5207 25.74H16.4744C16.4625 25.742 16.4513 25.7467 16.4417 25.7539C16.432 25.761 16.4243 25.7704 16.419 25.7812C16.4137 25.7919 16.411 25.8038 16.4113 25.8158C16.4115 25.8278 16.4146 25.8396 16.4203 25.8501C16.5219 26.1092 16.644 26.3598 16.7853 26.5996V26.5996Z" fill="white"/>
<path d="M12.4236 5.19744C12.4622 4.82857 12.5222 4.46225 12.6032 4.10032C12.6536 3.94437 12.6784 3.7813 12.6766 3.61743C12.6927 3.4229 12.7198 3.22943 12.7577 3.03797C12.7713 2.90083 12.8253 2.84481 12.9509 2.8255C13.3584 2.75017 13.3217 2.76562 13.5999 3.21181C13.907 3.71401 14.1272 4.25677 14.4015 4.7725C14.4382 4.84203 14.583 4.93474 14.4305 5.02746C14.2779 5.12017 13.9688 5.09699 13.9031 4.97917C13.71 4.62183 13.71 4.64115 13.3237 4.68558C13.0339 4.71841 12.8408 4.79181 12.864 5.13369C12.864 5.24765 12.5433 5.39252 12.4487 5.32685C12.4062 5.30753 12.4197 5.26504 12.4236 5.19744ZM13.1653 3.42428C13.1267 3.48222 13.1054 3.49961 13.1015 3.52085C13.0764 3.66958 13.0513 3.81831 13.032 3.96704C12.9818 4.35335 12.9837 4.35335 13.37 4.27222H13.3932C13.513 4.26257 13.5439 4.21042 13.4898 4.10032C13.3836 3.89364 13.285 3.67345 13.1653 3.42428Z" fill="white"/>
<path d="M19.9914 3.87127L19.7983 6.09834C19.7983 6.12152 19.7983 6.16015 19.7867 6.16594C19.6148 6.25093 19.5008 6.09061 19.356 6.05777C19.2574 6.0346 19.242 5.96699 19.2864 5.86462C19.3105 5.82398 19.3251 5.77847 19.3293 5.73144C19.3335 5.6844 19.3271 5.63702 19.3106 5.59277C19.2942 5.54852 19.268 5.50851 19.2341 5.47567C19.2001 5.44283 19.1593 5.418 19.1145 5.40298L18.9214 5.31992C18.5621 5.17313 18.5621 5.17313 18.3052 5.46093C18.2183 5.55557 17.8822 5.51501 17.8378 5.40105C17.8165 5.3489 17.859 5.3122 17.8899 5.27743C18.0985 5.0289 18.3084 4.78038 18.5196 4.53185C18.5602 4.48357 18.5988 4.41982 18.6683 4.50288C18.6992 4.54151 18.7379 4.57435 18.7823 4.5164C18.7919 4.50901 18.7997 4.4995 18.805 4.48861C18.8104 4.47773 18.8132 4.46576 18.8132 4.45363C18.8132 4.44149 18.8104 4.42952 18.805 4.41864C18.7997 4.40775 18.7919 4.39825 18.7823 4.39085C18.6857 4.32518 18.7456 4.27689 18.7823 4.22088C18.9581 4.01613 19.1358 3.81332 19.3019 3.60278C19.3927 3.48882 19.495 3.45598 19.6071 3.53711C19.7191 3.61823 20.0204 3.5796 19.9914 3.87127ZM19.4429 4.1919L19.3753 4.17065L19.0566 4.55696C18.8074 4.85442 18.8422 4.94327 19.2304 5.0244C19.3135 5.04178 19.356 5.0244 19.3656 4.94327C19.3965 4.68831 19.4216 4.43914 19.4467 4.1919H19.4429Z" fill="white"/>
<path d="M24.6133 19.5898C24.9996 19.924 25.3666 20.2639 25.7568 20.5865C25.7904 20.6052 25.8197 20.631 25.8426 20.662C25.8654 20.693 25.8815 20.7285 25.8895 20.7661C25.8975 20.8038 25.8975 20.8428 25.8892 20.8804C25.881 20.9181 25.8648 20.9535 25.8418 20.9844C25.7626 21.1466 25.7085 21.1119 25.608 21.0211C25.0685 20.5382 24.5283 20.0566 23.9875 19.5763C23.9044 19.5009 23.8716 19.4333 23.9334 19.331C23.961 19.2832 23.9836 19.2327 24.001 19.1803C24.0074 19.1403 24.0225 19.1023 24.0453 19.0689C24.0681 19.0354 24.0981 19.0075 24.133 18.987C24.1679 18.9665 24.2068 18.954 24.2471 18.9503C24.2875 18.9467 24.3281 18.952 24.3661 18.9659C25.0305 19.0857 25.7008 19.1591 26.3691 19.2614C26.5506 19.2865 26.6163 19.3368 26.5178 19.528C26.3575 19.839 26.3459 19.8312 25.9383 19.7385C25.5308 19.6458 25.0769 19.5937 24.6442 19.5241L24.6133 19.5898Z" fill="white"/>
<path d="M5.34461 10.4627C4.95058 10.1202 4.55719 9.77766 4.16444 9.43513C4.09684 9.37718 4.00992 9.33855 4.06207 9.20528C4.1741 8.91168 4.19341 8.90009 4.42713 9.11063L4.55075 9.22073C4.79799 9.43706 4.79799 9.43706 4.84048 9.75963C4.95058 9.52398 5.04329 9.65533 5.1418 9.74225C5.41994 9.98948 5.69616 10.2387 5.98009 10.4782C6.01899 10.5042 6.04633 10.5443 6.0564 10.59C6.06648 10.6357 6.05852 10.6835 6.03418 10.7235C5.87772 11.1098 5.87965 11.1098 5.47789 11.0634C4.83469 10.9784 4.19148 10.8703 3.54635 10.7949C3.39762 10.7776 3.35319 10.7524 3.42273 10.6018C3.57339 10.2696 3.57339 10.2696 3.9597 10.3217C4.24943 10.37 4.53916 10.4125 4.82889 10.4627C4.87475 10.4616 4.92029 10.4706 4.96233 10.4889C5.00437 10.5073 5.04189 10.5346 5.07227 10.5689C5.15725 10.6752 5.22293 10.4473 5.35427 10.54L5.34461 10.4627Z" fill="white"/>
<path d="M26.6742 10.5117C26.6816 10.891 26.6642 11.2704 26.6221 11.6475C26.6066 11.7941 26.5595 11.9356 26.4842 12.0623C26.4088 12.1889 26.3069 12.2978 26.1855 12.3815C26.1276 12.4297 26.031 12.4742 25.9653 12.4336C25.8997 12.393 25.9653 12.3061 25.9847 12.2405C26.087 11.97 26.1913 11.7016 26.2956 11.4331L26.2416 11.4099C26.1025 11.6745 25.9596 11.9372 25.8263 12.2057C25.7664 12.3274 25.7142 12.3563 25.5984 12.2617C25.4361 12.1246 25.2584 12.0048 25.0884 11.8754L25.044 11.9198C25.1869 12.055 25.3318 12.1864 25.4689 12.3254C25.5134 12.3718 25.608 12.4066 25.5597 12.4954C25.5114 12.5843 25.4322 12.5495 25.3666 12.5437C25.2663 12.5411 25.1687 12.5109 25.0845 12.4564C25.0003 12.4018 24.9328 12.3251 24.8895 12.2347C24.7813 12.0067 24.6268 11.8136 24.5186 11.5799C24.5012 11.5412 24.4529 11.4987 24.4858 11.4505C24.5186 11.4022 24.5843 11.4118 24.6384 11.4273C24.9093 11.4877 25.1725 11.5791 25.4226 11.6996C25.5307 11.7556 25.5868 11.773 25.6582 11.6359C25.8881 11.1878 26.2821 10.8884 26.6742 10.5117Z" fill="white"/>
<path d="M4.98703 16.6992C5.05956 17.073 5.06806 17.4564 5.01214 17.833C4.99509 17.9117 4.96123 17.9857 4.91289 18.0501C4.86455 18.1144 4.80286 18.1675 4.73207 18.2058C4.71052 18.2236 4.68436 18.2348 4.65665 18.2383C4.62894 18.2417 4.60083 18.2371 4.57561 18.2251C4.52153 18.1884 4.54857 18.1266 4.56209 18.0725C4.64143 17.8668 4.69841 17.6531 4.73207 17.4351C4.61051 17.6211 4.51437 17.8225 4.4462 18.0339C4.38825 18.1691 4.33996 18.202 4.20862 18.1092C3.9691 17.9451 3.718 17.7983 3.47077 17.6437L3.436 17.6901C3.65233 17.8639 3.87253 18.0378 4.08693 18.2135C4.13908 18.256 4.23759 18.2889 4.21055 18.3681C4.18351 18.4473 4.09079 18.4376 4.01739 18.4357C3.82902 18.4264 3.64816 18.3589 3.49974 18.2425C3.08446 17.9528 2.92993 17.4989 2.646 17.1164C3.13854 17.1937 3.62915 17.2671 4.05796 17.5259C4.19703 17.6109 4.23179 17.5819 4.30712 17.4699C4.50017 17.1852 4.72863 16.9262 4.98703 16.6992V16.6992Z" fill="white"/>
<path d="M11.9368 3.34704C11.9542 3.50543 11.8325 3.49191 11.763 3.51895C11.3979 3.65416 11.396 3.65029 11.5196 4.01536C11.6722 4.46734 11.8248 4.92125 11.9832 5.36744C12.0141 5.45822 12.0218 5.47367 11.9079 5.5123C11.8032 5.53234 11.7043 5.57521 11.6181 5.63785C11.5177 5.7325 11.4926 5.57991 11.4675 5.50651C11.2994 5.03521 11.1256 4.56005 10.9749 4.08682C10.9112 3.87822 10.8204 3.80289 10.6253 3.91685C10.5981 3.93555 10.5674 3.94868 10.5351 3.9555C10.5027 3.96233 10.4694 3.9627 10.4369 3.95659C10.4044 3.95049 10.3734 3.93804 10.3458 3.91995C10.3181 3.90186 10.2943 3.87849 10.2757 3.85117C10.1405 3.70824 10.156 3.61553 10.3491 3.54792C10.7605 3.40306 11.1739 3.26205 11.5872 3.12105C11.819 3.03413 11.931 3.12105 11.9368 3.34704Z" fill="white"/>
<path d="M18.6974 25.1795C18.5776 25.278 18.7089 25.2992 18.7398 25.3726C18.8388 25.5056 18.8824 25.6717 18.8615 25.8362C18.8171 26.0062 19.0161 26.0409 19.0547 26.1684C19.0701 26.209 19.215 26.2012 19.3097 26.1394C19.5646 25.9753 19.6148 26.0062 19.7075 26.2727C19.7558 26.4099 19.7075 26.4523 19.5897 26.489C19.1435 26.6339 18.6973 26.7749 18.257 26.9391C18.0638 27.0125 18.0522 26.8908 18.0059 26.7711C17.9595 26.6513 17.9556 26.5644 18.1217 26.5122C18.5216 26.3828 18.5196 26.3712 18.3844 25.9695C18.2492 25.5677 18.1024 25.1254 17.9556 24.7062C17.9054 24.5652 17.8861 24.4397 18.0908 24.4686C18.2145 24.4841 18.2975 24.2523 18.4173 24.4165C18.4736 24.521 18.5152 24.6328 18.5409 24.7487C18.6008 24.8859 18.6394 25.0288 18.6974 25.1795Z" fill="white"/>
<path d="M17.0693 5.20882C17.2509 4.45551 17.4209 3.74664 17.5909 3.03776C17.6082 2.96243 17.6411 2.92959 17.7241 2.95664C17.8062 2.98561 17.891 3.00631 17.9772 3.01844C18.1143 3.03197 18.1182 3.10536 18.0931 3.2116C17.9269 3.89022 17.7647 4.56883 17.6063 5.24745C17.5735 5.38073 17.5059 5.41356 17.3842 5.35948C17.2625 5.3054 17.0944 5.36527 17.0693 5.20882Z" fill="white"/>
<path d="M12.2288 27.0351L12.0956 27.0062C11.7923 26.9366 11.7904 26.9347 11.8618 26.6392C12.0125 26.023 12.1786 25.4107 12.3158 24.7907C12.3737 24.5241 12.5282 24.64 12.6731 24.6555C12.8527 24.6728 12.8798 24.7598 12.8353 24.9259C12.6692 25.5672 12.5147 26.2123 12.3525 26.8574C12.3331 26.9386 12.3409 27.0738 12.2288 27.0351Z" fill="white"/>
<path d="M2.34477 18.0762C2.22116 18.1014 2.18059 18.0357 2.15162 17.9256C1.99359 17.3016 1.90293 16.6625 1.8812 16.0191C1.8812 15.77 1.81553 15.5343 1.82519 15.289C1.82639 14.6304 1.86056 13.9722 1.92756 13.3169C2.01854 12.6479 2.15732 11.9863 2.34284 11.3371C2.6054 10.4212 2.9695 9.53748 3.42837 8.70246C3.45928 8.64451 3.46314 8.5093 3.56165 8.55373C3.66016 8.59815 3.56165 8.68893 3.52688 8.74688C2.70446 10.2587 2.18607 11.9169 2.00096 13.6279C1.94881 14.1011 1.94301 14.5782 1.93529 15.0553C1.92747 15.4648 1.94488 15.8745 1.98744 16.2818C2.02604 16.8934 2.14422 17.4972 2.33898 18.0782L2.34477 18.0762Z" fill="white"/>
<path d="M17.0517 27.9885C13.8225 28.5182 10.5122 27.812 7.78027 26.0106C7.89423 25.8889 7.97343 25.999 8.03331 26.0415C8.95413 26.6239 9.94437 27.0885 10.9808 27.4245C12.7187 27.9839 14.5537 28.1766 16.3699 27.9904C16.5254 28 16.6813 27.9804 16.8296 27.9325C16.901 27.89 16.9802 27.9421 17.0517 27.9885Z" fill="white"/>
<path d="M2.34296 18.0761C2.33499 18.266 2.37344 18.455 2.45499 18.6266C3.18176 21.1622 4.66409 23.416 6.70439 25.0876C6.77972 25.1514 6.84153 25.248 6.96129 25.2383C6.89355 25.2562 6.82231 25.2562 6.75458 25.2383C6.68684 25.2203 6.62495 25.185 6.57498 25.1359C4.48992 23.4061 2.99081 21.0737 2.28308 18.4586C2.24445 18.3234 2.16912 18.1824 2.33717 18.0723L2.34296 18.0761Z" fill="white"/>
<path d="M13.7026 1.95108C13.9248 1.81587 14.1797 1.8603 14.4154 1.84871C15.24 1.80619 16.0669 1.84501 16.8839 1.9646C18.4087 2.18414 19.8834 2.66852 21.2415 3.39588C21.3516 3.45575 21.4346 3.50984 21.4018 3.65664C21.1808 3.47747 20.9323 3.33527 20.6659 3.23556C18.6652 2.27265 16.4523 1.83524 14.2357 1.9646C14.058 1.9646 13.8784 2.05538 13.7026 1.95301V1.95108Z" fill="white"/>
<path d="M17.2875 27.9713C17.2489 27.9713 17.1967 27.9867 17.1909 27.9307C17.1909 27.84 17.2624 27.8631 17.3087 27.8535C17.847 27.7559 18.3791 27.6269 18.9023 27.4672C20.4283 26.9867 21.8529 26.2298 23.1053 25.2343C23.1285 25.215 23.1536 25.1937 23.1787 25.1763C23.2038 25.159 23.283 25.0663 23.3352 25.1493C23.3873 25.2324 23.2869 25.2343 23.2482 25.2671C22.5551 25.8257 21.807 26.3124 21.0154 26.7197C19.8625 27.3094 18.6302 27.729 17.357 27.9655L17.2875 27.9713Z" fill="white"/>
<path d="M13.7023 1.94922C13.0919 2.07477 12.4796 2.18487 11.875 2.33553C10.5441 2.65197 9.2742 3.18511 8.11624 3.9136C8.06988 3.94257 8.02159 3.97348 7.9733 4.00052C7.92501 4.02756 7.91729 4.03915 7.89411 4.00052C7.88978 3.99393 7.88679 3.98655 7.88533 3.9788C7.88386 3.97106 7.88393 3.9631 7.88555 3.95538C7.88716 3.94766 7.89029 3.94034 7.89474 3.93383C7.89919 3.92733 7.90488 3.92176 7.91149 3.91746C7.96364 3.88076 8.01773 3.846 8.07181 3.81316C9.56148 2.89186 11.2204 2.27782 12.9509 2.00716C13.1978 1.95499 13.4512 1.94131 13.7023 1.9666V1.94922Z" fill="white"/>
<path d="M7.80293 4.09845L7.70249 4.17378C7.02587 4.63106 6.3917 5.14822 5.80764 5.71901C5.76901 5.75957 5.72265 5.84456 5.65505 5.77696C5.58745 5.70935 5.68595 5.68424 5.71686 5.65334C6.29555 5.07622 6.92739 4.55497 7.60398 4.09651C7.6484 4.06561 7.68704 4.01153 7.75078 4.04243C7.77009 4.05595 7.78168 4.0772 7.80293 4.09845Z" fill="white"/>
<path d="M5.25975 6.18555C5.3177 6.26474 5.25975 6.30723 5.21726 6.35359C4.70114 6.93365 4.23888 7.55948 3.8362 8.22333C3.81495 8.26003 3.80336 8.33342 3.74349 8.30831C3.68361 8.2832 3.71065 8.21367 3.74349 8.16731C4.16401 7.46978 4.65179 6.81508 5.19987 6.21259C5.21339 6.19327 5.24043 6.19327 5.25975 6.18555Z" fill="white"/>
<path d="M21.4013 3.66398C21.5037 3.6408 21.5945 3.58479 21.7084 3.66398C21.9711 3.85714 22.2454 4.01745 22.5178 4.18936C22.6047 4.24345 22.6703 4.30332 22.6259 4.41728C22.2956 4.20288 21.9653 3.98462 21.6331 3.77022C21.568 3.71161 21.4849 3.67688 21.3975 3.67171L21.4013 3.66398Z" fill="white"/>
<path d="M6.96823 25.2383C7.09571 25.4585 7.33523 25.5454 7.51486 25.7019C7.56315 25.7424 7.62109 25.7733 7.67132 25.812C7.72154 25.8506 7.71574 25.8583 7.69642 25.8931C7.69264 25.9 7.68732 25.9061 7.68086 25.9107C7.67441 25.9153 7.66699 25.9183 7.65916 25.9196C7.65134 25.9209 7.64333 25.9204 7.63572 25.9182C7.62812 25.9159 7.62114 25.912 7.6153 25.9066C7.38931 25.7443 7.16332 25.586 6.94312 25.4198C6.85813 25.3561 6.92574 25.2943 6.96823 25.2383V25.2383Z" fill="white"/>
<path d="M21.2627 9.88344C21.2009 9.79459 21.3052 9.71346 21.2356 9.71346C20.9826 9.71346 20.9266 9.47588 20.7759 9.35613C20.5828 9.20547 20.4302 9.02583 20.2506 8.86938C18.7908 7.61305 16.9284 6.92279 15.0025 6.92431C13.9861 6.93177 12.9793 7.12149 12.0299 7.48446C11.5208 7.68951 11.0351 7.94853 10.5812 8.25708C10.1095 8.55297 9.675 8.90445 9.2871 9.30398C8.88933 9.70633 8.53219 10.1469 8.22089 10.6194C7.91776 11.0866 7.66339 11.5836 7.46179 12.1028C7.25663 12.6287 7.10897 13.1753 7.0214 13.733C6.97311 14.0459 6.9422 14.3646 6.92482 14.6814C6.8895 15.6968 7.04006 16.7101 7.36908 17.6714C7.51201 18.1002 7.75539 18.4846 7.90605 18.9018C7.9949 19.1375 8.26531 19.2727 8.23634 19.5663C8.23634 19.6107 8.38121 19.632 8.44301 19.715C9.23213 20.8088 10.2807 21.6892 11.4945 22.2772C12.7083 22.8652 14.0492 23.1423 15.3966 23.0836C15.9979 23.0428 16.5937 22.9432 17.1755 22.7862C17.2547 22.7668 17.3552 22.6992 17.3822 22.8422C17.4092 22.9851 17.2895 22.9523 17.2238 22.9697C16.0234 23.2999 14.7648 23.3599 13.5384 23.1454C13.4399 23.13 13.3144 23.1454 13.2893 22.9832C13.2893 22.9426 13.1618 22.9079 13.1521 22.9484C13.0961 23.1512 12.959 23.0179 12.8914 23.0006C11.3116 22.585 9.89079 21.7096 8.80927 20.4854C7.72775 19.2611 7.03422 17.7432 6.81665 16.1243C6.75587 15.7618 6.72807 15.3946 6.7336 15.0271C6.75291 14.6408 6.75291 14.2545 6.80893 13.8682C6.86176 13.4805 6.94245 13.097 7.05037 12.7209C7.14966 12.3423 7.2855 11.9742 7.456 11.6218C7.5545 11.4287 7.64915 11.2355 7.73993 11.0424C7.77856 10.967 7.78243 10.826 7.93309 10.8763C7.97558 10.8898 8.00842 10.828 7.98524 10.7932C7.89639 10.6561 8.00455 10.573 8.06443 10.4803C8.66156 9.56176 9.43812 8.77337 10.3475 8.16243C11.5201 7.35022 12.89 6.86913 14.313 6.76979C15.0538 6.69692 15.8014 6.73665 16.5304 6.88761C16.9223 6.96506 17.3093 7.06568 17.6893 7.18893C18.9465 7.62834 20.0803 8.36215 20.9961 9.32909C21.0908 9.42566 21.1584 9.54928 21.2511 9.64007C21.3438 9.73085 21.2588 9.78107 21.2627 9.88344Z" fill="white"/>
<path d="M11.4328 14.5181C11.4869 14.7286 11.5854 14.605 11.6685 14.5837C11.6896 14.5812 11.7097 14.5728 11.7263 14.5594C11.7429 14.5461 11.7554 14.5284 11.7625 14.5082C11.7695 14.4881 11.7708 14.4664 11.7661 14.4456C11.7614 14.4248 11.751 14.4058 11.7361 14.3906C11.6762 14.3095 11.7361 14.1549 11.5545 14.1395C11.4657 14.1395 11.5236 14.0197 11.5545 13.9599C11.6159 13.8013 11.7114 13.6583 11.8342 13.5408C11.957 13.4233 12.1042 13.3342 12.2653 13.28C12.4885 13.1824 12.7344 13.1488 12.9755 13.1829C13.2167 13.217 13.4436 13.3175 13.6309 13.4731C14.3398 14.068 14.6971 15.4047 14.3301 16.2449C14.2452 16.4527 14.1095 16.6358 13.9354 16.7775C13.7613 16.9193 13.5545 17.015 13.3337 17.0559C13.113 17.0969 12.8856 17.0817 12.6722 17.0119C12.4589 16.9421 12.2665 16.8198 12.1127 16.6563C11.5642 16.0633 11.3865 15.337 11.4328 14.5181ZM12.7192 13.7957C12.5883 13.7979 12.463 13.8494 12.3685 13.9401C12.2739 14.0307 12.2171 14.1536 12.2093 14.2844C12.1944 14.556 12.2311 14.828 12.3175 15.0859C12.3849 15.4692 12.5155 15.8386 12.7038 16.1792C12.7535 16.2803 12.8365 16.3613 12.9389 16.4084C13.0412 16.4555 13.1567 16.466 13.2659 16.438C13.3755 16.4041 13.4717 16.3367 13.541 16.2452C13.6103 16.1537 13.6492 16.0428 13.6522 15.9281C13.6669 15.6907 13.6361 15.4527 13.5614 15.227C13.4807 14.8448 13.3508 14.4747 13.1751 14.126C13.1383 14.0328 13.0761 13.9518 12.9955 13.8924C12.9148 13.8329 12.8191 13.7974 12.7192 13.7899V13.7957Z" fill="white"/>
<path d="M15.7168 12.3539C15.7013 12.4679 15.6859 12.5471 15.6009 12.6031C15.4657 12.6745 15.4077 12.7653 15.5024 12.9044C15.5363 12.965 15.5558 13.0325 15.5595 13.1018C15.5632 13.1711 15.5509 13.2404 15.5236 13.3042C15.4837 13.5081 15.4923 13.7185 15.5487 13.9184C15.6368 14.4114 15.7941 14.8893 16.0162 15.3381C16.0578 15.4168 16.1225 15.481 16.2015 15.522C16.2805 15.5631 16.3701 15.5791 16.4585 15.568C16.5637 15.5727 16.6674 15.5411 16.7521 15.4785C16.8369 15.4159 16.8975 15.3261 16.924 15.2242C16.9789 15.0238 16.9789 14.8123 16.924 14.6119C16.8139 14.0749 16.7115 13.5341 16.3812 13.0666C16.331 12.999 16.2615 12.943 16.2132 12.8735C16.1649 12.8039 16.1765 12.7904 16.0818 12.8349C15.9872 12.8793 15.9988 12.7692 16.0258 12.6996C16.0529 12.6301 16.0838 12.5664 16.0123 12.5297C15.8945 12.4679 15.9814 12.6571 15.8887 12.6398C15.8937 12.5892 15.9092 12.5403 15.9341 12.496C15.9591 12.4518 15.9931 12.4133 16.0338 12.3829C16.0745 12.3526 16.1211 12.331 16.1706 12.3197C16.2202 12.3084 16.2715 12.3075 16.3214 12.3172C16.8294 12.406 17.1481 12.746 17.3818 13.1671C17.6788 13.6853 17.8134 14.2809 17.7681 14.8765C17.6966 15.7592 16.9781 16.3464 16.1301 16.1803C15.9105 16.1356 15.7086 16.0283 15.5487 15.8712C15.375 15.7258 15.2211 15.5583 15.091 15.3729C15.033 15.2841 14.8882 15.1797 15.0272 15.0445C15.0272 15.0445 15.0272 14.9963 15.0118 14.9847C14.6255 14.6524 14.7259 14.1889 14.6931 13.7678C14.6903 13.601 14.7165 13.435 14.7703 13.2772C14.8243 13.0494 14.9419 12.8416 15.1095 12.6781C15.2771 12.5146 15.4877 12.4022 15.7168 12.3539V12.3539Z" fill="white"/>
<path d="M9.17415 15.0117C8.93418 15.334 8.6552 15.6253 8.34358 15.8789C8.35904 15.7592 8.16202 15.7263 8.31075 15.5969C8.34938 15.5622 8.31075 15.5313 8.25666 15.5042C8.21788 15.4871 8.18462 15.4596 8.16063 15.4246C8.13664 15.3897 8.12287 15.3488 8.12086 15.3064C8.11885 15.2641 8.12869 15.222 8.14927 15.185C8.16985 15.1479 8.20035 15.1173 8.23735 15.0967C8.56353 14.8582 8.86333 14.5856 9.13165 14.2835C9.20312 14.2159 9.09302 14.1154 9.20119 14.0903C9.24975 14.0652 9.3031 14.0506 9.35771 14.0476C9.41232 14.0446 9.46694 14.0533 9.51796 14.0729C9.71112 14.1715 9.71112 14.1599 9.69953 13.959C9.8077 13.959 9.78258 14.0652 9.79804 14.1232C10.0144 14.9215 10.2281 15.7193 10.4393 16.5164C10.4586 16.5897 10.5301 16.6786 10.4181 16.7501C10.4092 16.7552 10.4022 16.7629 10.3978 16.7721C10.3935 16.7814 10.392 16.7917 10.3937 16.8018C10.3954 16.8118 10.4001 16.8212 10.4072 16.8285C10.4143 16.8358 10.4235 16.8408 10.4335 16.8428C10.5591 16.864 10.5649 17.0823 10.758 17.0089C10.9859 16.9239 11.2332 16.8872 11.4669 16.8157C11.5982 16.7732 11.6349 16.8157 11.66 16.9355C11.6736 16.9915 11.66 17.0495 11.66 17.0977C11.6948 17.202 11.8223 17.3102 11.7238 17.4107C11.6543 17.4802 11.519 17.486 11.4128 17.515C10.6151 17.7274 9.81542 17.9322 9.01962 18.1543C8.89021 18.191 8.81681 18.1543 8.78784 18.0597C8.75308 17.928 8.70919 17.7989 8.65649 17.6733C8.6485 17.6611 8.64395 17.647 8.64332 17.6324C8.6427 17.6178 8.64602 17.6033 8.65295 17.5905C8.65987 17.5776 8.67013 17.5669 8.68266 17.5593C8.69518 17.5518 8.7095 17.5478 8.7241 17.5478C8.90106 17.4929 9.0839 17.4592 9.26879 17.4474C9.43104 17.4307 9.58385 17.363 9.70532 17.2542C9.79417 17.1905 9.70532 17.0746 9.68408 16.9876C9.59136 16.6013 9.45615 16.2421 9.39241 15.8596C9.35378 15.5796 9.22051 15.3362 9.17415 15.0117Z" fill="white"/>
<path d="M19.8214 21.6834C19.7997 21.6279 19.7991 21.5664 19.8198 21.5105C19.8404 21.4546 19.8808 21.4082 19.9334 21.3801C20.3884 21.0485 20.7981 20.6589 21.1522 20.2212C21.2314 20.1208 21.3454 20.0918 21.4226 19.9875C22.9524 17.7372 23.501 15.317 22.7245 12.6573C22.6137 12.2775 22.4662 11.9094 22.2841 11.5582C22.2479 11.4522 22.222 11.3428 22.2068 11.2318C22.1643 11.0889 22.0407 11.0386 21.9751 10.9208C21.8089 10.635 21.5887 10.3742 21.3956 10.1018C21.3608 10.0536 21.2894 10.0111 21.3454 9.9396C21.4014 9.86813 21.4632 9.96857 21.525 9.97629C21.5868 9.98402 21.6139 10.0478 21.6332 10.096C21.7568 10.4244 22.0427 10.6446 22.1972 10.9556C22.3517 11.2666 22.5294 11.5891 22.6569 11.9214C22.7612 12.1937 22.85 12.4699 22.9428 12.7481C22.9847 12.8416 22.9922 12.947 22.964 13.0455C22.9022 13.2155 23.0857 13.2986 23.1147 13.4569C23.2991 14.4181 23.303 15.4052 23.1263 16.3678C23.0432 16.7927 23.0258 17.2408 22.823 17.6387C22.741 17.8052 22.67 17.9768 22.6105 18.1525C22.194 19.2673 21.5094 20.2624 20.6172 21.0498C20.3641 21.2739 20.1536 21.5694 19.8079 21.6815L19.8214 21.6834Z" fill="white"/>
<path d="M21.855 14.0625C21.8221 14.642 21.5247 14.951 21.0669 14.9317C20.669 14.9143 20.3368 14.5203 20.2653 13.9659C20.2035 13.485 20.3947 13.1431 20.7946 13.0272C20.9224 12.9818 21.061 12.976 21.1923 13.0104C21.3235 13.0449 21.4414 13.118 21.5305 13.2204C21.7343 13.4542 21.8492 13.7524 21.855 14.0625V14.0625ZM20.9317 13.3169C20.8649 13.3209 20.8023 13.3508 20.7572 13.4002C20.7122 13.4496 20.6881 13.5147 20.6903 13.5816C20.6854 13.6765 20.6952 13.7716 20.7192 13.8636C20.7514 14.0844 20.8276 14.2966 20.9433 14.4875C21.0321 14.6111 21.1828 14.6806 21.2871 14.5609C21.3605 14.4759 21.6019 14.4256 21.432 14.1958C21.3626 14.054 21.3282 13.8977 21.3315 13.7399C21.3161 13.5661 21.0959 13.3092 20.9317 13.3169Z" fill="white"/>
<path d="M17.7661 12.5874C17.7661 12.0292 17.9767 11.7453 18.3881 11.6815C18.7995 11.6178 19.1221 11.8747 19.2766 12.3189C19.3597 12.6137 19.3523 12.9266 19.2553 13.2171C19.1549 13.6034 18.4827 13.729 18.1466 13.4257C18.03 13.3188 17.9362 13.1894 17.8708 13.0454C17.8054 12.9013 17.7698 12.7456 17.7661 12.5874V12.5874ZM18.1679 12.4136C18.2258 12.6067 18.2896 12.7999 18.361 12.993C18.3871 13.0769 18.4351 13.1522 18.5001 13.2113C18.5393 13.2528 18.5933 13.2772 18.6503 13.2794C18.7074 13.2815 18.763 13.2613 18.8053 13.2229C18.8748 13.1611 19.0293 13.1514 18.9984 13.0297C18.9464 12.7641 18.8655 12.5051 18.757 12.2571C18.6836 12.0987 18.6063 11.9403 18.3939 11.9886C18.1814 12.0369 18.1911 12.2262 18.1679 12.4078V12.4136Z" fill="white"/>
<path d="M20.5146 11.1543C20.362 11.4691 20.4605 11.8458 20.1727 12.0969C20.2442 12.2785 20.1283 12.431 20.0993 12.5972C20.0993 12.6609 20.1186 12.7169 20.0163 12.7131C19.9776 12.7131 19.9371 12.7691 19.9757 12.798C20.1341 12.9159 20.0259 13.0472 19.9989 13.165C19.8386 13.8276 19.6705 14.4881 19.5044 15.1507C19.4945 15.1972 19.4816 15.243 19.4658 15.2878C19.4421 15.3437 19.3988 15.389 19.3439 15.415C19.2891 15.441 19.2266 15.4459 19.1683 15.4288C19.0524 15.4056 19.1355 15.2839 19.1548 15.2125C19.4445 14.1038 19.6763 12.9815 20.0105 11.8844C20.0402 11.7779 20.0577 11.6684 20.0626 11.558C20.0819 11.3011 20.2249 11.1813 20.5146 11.1543Z" fill="white"/>
<path d="M18.5506 22.4833C18.4753 22.2515 18.653 22.1993 18.8017 22.1201C18.9504 22.0409 19.1455 21.927 19.3097 21.8227C19.4739 21.7184 19.613 21.5928 19.8216 21.6836C19.6033 21.9424 19.2885 22.0699 19.0122 22.2399C18.8654 22.3326 18.7071 22.4041 18.5525 22.4852L18.5506 22.4833Z" fill="white"/>
<path d="M18.547 22.4763C18.321 22.5691 18.0969 22.6695 17.869 22.7526C17.8149 22.7719 17.7493 22.8202 17.7087 22.7294C17.6681 22.6386 17.7261 22.6019 17.7976 22.5729C17.9298 22.5284 18.0589 22.4748 18.1839 22.4126C18.2115 22.3926 18.243 22.3785 18.2763 22.3711C18.3096 22.3637 18.3441 22.3633 18.3776 22.3698C18.4111 22.3763 18.4429 22.3897 18.4711 22.409C18.4992 22.4283 18.5231 22.4532 18.5412 22.4821C18.5412 22.4821 18.547 22.4763 18.547 22.4763Z" fill="white"/>
</svg>
